<?xml version="1.0" encoding="UTF-8"?>
<svg version="1.1" xmlns="http://www.w3.org/2000/svg" width="2048" height="2048">
<path d="M0 0 C2.78027031 -0.00177343 5.56052658 -0.00806716 8.34079042 -0.01412097 C14.37026788 -0.02488006 20.39966503 -0.02467381 26.42914613 -0.01704793 C35.45556116 -0.00568659 44.48190914 -0.01178726 53.50832354 -0.02111193 C68.89740411 -0.03650197 84.28645634 -0.03773363 99.67554188 -0.0311327 C115.26137242 -0.02449561 130.84718273 -0.02439169 146.43301296 -0.03217983 C147.41903538 -0.03266783 148.4050578 -0.03315583 149.42095968 -0.03365862 C153.43717418 -0.0356669 157.45338865 -0.03772001 161.4696031 -0.03983036 C202.20016289 -0.06120983 242.93070771 -0.0632886 283.6612717 -0.05777332 C289.28580475 -0.05701757 294.9103378 -0.05628996 300.53487086 -0.05559134 C301.65209583 -0.05545225 302.7693208 -0.05531316 303.92040107 -0.05516986 C328.6971291 -0.05221558 353.47385535 -0.05523232 378.25058306 -0.05948763 C381.64314971 -0.06006979 385.03571637 -0.06063864 388.42828302 -0.06120327 C397.52298526 -0.06271826 406.61768749 -0.06424518 415.71238972 -0.06579627 C479.18876098 -0.07655057 542.66513058 -0.08125734 606.14150238 -0.07332611 C607.33763446 -0.0731778 608.53376654 -0.0730295 609.76614504 -0.0728767 C623.10381958 -0.07121775 636.44149411 -0.06946816 649.77916863 -0.06768369 C651.58540878 -0.06744215 651.58540878 -0.06744215 653.42813863 -0.06719574 C663.19931615 -0.06588816 663.19931615 -0.06588816 668.03726463 -0.06523455 C745.05858032 -0.05484339 822.07987317 -0.0626099 899.1011858 -0.086236 C918.50920165 -0.09217957 937.9172175 -0.0980712 957.32523346 -0.10364532 C958.52031467 -0.1039891 959.71539588 -0.10433287 960.94669168 -0.10468705 C997.78804231 -0.11521701 1034.62939104 -0.12080851 1071.47074318 -0.12120247 C1072.62763362 -0.12121525 1073.78452406 -0.12122803 1074.97647179 -0.1212412 C1100.37454095 -0.12146951 1125.77260993 -0.12046325 1151.17067899 -0.11833215 C1160.25876958 -0.11757741 1169.34686017 -0.1168992 1178.43495076 -0.116252 C1180.69576448 -0.11608931 1182.95657821 -0.11592164 1185.21739194 -0.11574898 C1221.21632663 -0.11302966 1257.21524744 -0.12157409 1293.21417915 -0.13560309 C1330.48547577 -0.15002143 1367.75674602 -0.14954706 1405.02804174 -0.13222837 C1409.03417292 -0.13042425 1413.04030413 -0.12868405 1417.04643536 -0.12699413 C1418.02958222 -0.12657363 1419.01272908 -0.12615313 1420.02566828 -0.12571989 C1435.56432183 -0.11943331 1451.10293901 -0.12650898 1466.64158743 -0.13920333 C1481.93760248 -0.15141527 1497.23356041 -0.1492397 1512.52957117 -0.13198302 C1521.48520722 -0.1223014 1530.44068054 -0.12337195 1539.39630576 -0.140813 C1545.36093633 -0.15132056 1551.32544413 -0.14705186 1557.2900627 -0.13129651 C1560.6604414 -0.12279126 1564.03024307 -0.12232663 1567.40064282 -0.13568023 C1605.7152924 -0.27692163 1644.10856837 6.94355376 1678.078969 25.30756283 C1680.18238852 26.44188111 1682.30056887 27.54536675 1684.41978931 28.64984798 C1713.69492062 44.15143661 1740.7870017 67.40910884 1760.06822681 94.38031673 C1760.52101002 95.00470638 1760.97379322 95.62909603 1761.44029713 96.27240658 C1767.95524099 105.29948766 1773.78850159 114.59505574 1779.02281666 124.41986752 C1779.70315407 125.69569876 1780.39063084 126.96775698 1781.08629322 128.2352972 C1789.98249131 144.4792084 1796.03703829 162.11620667 1800.44322681 180.06781673 C1800.78281422 181.43377987 1800.78281422 181.43377987 1801.12926197 182.82733822 C1805.68688274 202.56618487 1806.50369276 222.1445105 1806.44575024 242.32605648 C1806.44721816 245.10783959 1806.45321056 247.88960914 1806.45896333 250.67138624 C1806.46906843 256.70416079 1806.46820183 262.73685378 1806.4599127 268.76962996 C1806.44755999 277.80090377 1806.4526932 286.83211228 1806.46106063 295.86338769 C1806.47482042 311.2605752 1806.47443027 326.6577329 1806.46621799 342.05492306 C1806.45795158 357.64881144 1806.45623335 373.24268022 1806.46243 388.83656979 C1806.46281752 389.8230946 1806.46320504 390.80961942 1806.4636043 391.82603893 C1806.46520419 395.84428829 1806.46685032 399.86253762 1806.46855512 403.88078693 C1806.48440724 441.27097411 1806.48550626 478.66114816 1806.47711277 516.05133724 C1806.47686438 517.15835019 1806.476616 518.26536313 1806.47636008 519.40592192 C1806.4761113 520.51471375 1806.47586251 521.62350558 1806.47560618 522.76589715 C1806.46803371 556.55920624 1806.46608381 590.35250991 1806.46967411 624.14581966 C1806.46990655 626.40963458 1806.47013802 628.6734495 1806.47036852 630.93726441 C1806.47129994 640.03482284 1806.47225594 649.13238126 1806.47324781 658.22993968 C1806.4759987 683.66066021 1806.4777106 709.09138075 1806.47860622 734.5221014 C1806.47864716 735.68011215 1806.4786881 736.83812291 1806.47873028 738.0312249 C1806.47995793 774.92503514 1806.47657837 811.8188435 1806.47005749 848.71265316 C1806.46984674 849.90909744 1806.46963599 851.10554173 1806.46941886 852.3382419 C1806.4659841 871.76716241 1806.46232567 891.19608287 1806.45864834 910.62500333 C1806.44407957 987.68016512 1806.44475578 1064.73531127 1806.4593401 1141.79047298 C1806.46300373 1161.20964208 1806.46663691 1180.62881117 1806.47005749 1200.04798031 C1806.4703745 1201.84159532 1806.4703745 1201.84159532 1806.47069793 1203.67144498 C1806.47716742 1240.52714092 1806.47990913 1277.38283557 1806.47860622 1314.23853207 C1806.47856547 1315.39569018 1806.47852472 1316.5528483 1806.47848273 1317.74507182 C1806.47754525 1343.14763924 1806.47564426 1368.55020653 1806.47287472 1393.95277383 C1806.47188731 1403.04215105 1806.47094807 1412.13152827 1806.47002258 1421.2209055 C1806.46979042 1423.48206185 1806.46955423 1425.7432182 1806.46931399 1428.00437455 C1806.46573462 1461.7878225 1806.46877981 1495.57126435 1806.47636008 1529.35471155 C1806.47660847 1530.46172449 1806.47685686 1531.56873744 1806.47711277 1532.70929623 C1806.47748484 1534.36674625 1806.47748484 1534.36674625 1806.47786443 1536.05768012 C1806.4861424 1573.34100559 1806.48308854 1610.62431532 1806.46727054 1647.90763855 C1806.46561351 1651.91311358 1806.4640034 1655.91858862 1806.46243 1659.92406368 C1806.46203938 1660.90706114 1806.46164876 1661.89005861 1806.4612463 1662.90284387 C1806.45533454 1678.45314526 1806.45944308 1694.00342704 1806.46773702 1709.55372666 C1806.47568272 1724.85277022 1806.47286923 1740.15178078 1806.45869475 1755.45082016 C1806.45070686 1764.41373867 1806.45082437 1773.37656657 1806.46313955 1782.33948069 C1806.47050572 1788.30256596 1806.46687076 1794.26558113 1806.45453898 1800.22865799 C1806.4478622 1803.60217871 1806.4473029 1806.97537447 1806.45698854 1810.34890896 C1806.51013526 1830.2814108 1805.20329739 1849.61276165 1800.31822681 1869.00531673 C1799.92981617 1870.56766048 1799.92981617 1870.56766048 1799.53355885 1872.16156673 C1791.38962679 1904.01685148 1776.51426133 1933.66829549 1756.06822681 1959.38031673 C1755.6399358 1959.9257513 1755.21164478 1960.47118587 1754.77037525 1961.03314877 C1742.51386195 1976.53460049 1728.15332259 1990.88137483 1712.06822681 2002.38031673 C1711.44383717 2002.83309994 1710.81944752 2003.28588314 1710.17613697 2003.75238705 C1700.54071048 2010.7063805 1690.60558929 2016.89063771 1680.06822681 2022.38031673 C1678.92305592 2022.98142269 1678.92305592 2022.98142269 1677.75475025 2023.5946722 C1655.82603195 2034.95838074 1632.42787768 2042.40392023 1608.06822681 2046.38031673 C1607.03976034 2046.55305238 1606.01129387 2046.72578803 1604.95166175 2046.90375809 C1591.62645079 2048.86022461 1578.31677847 2048.66015115 1564.8747406 2048.63758564 C1562.10146678 2048.63917188 1559.32819969 2048.64376851 1556.55492917 2048.64821011 C1550.52214462 2048.6562811 1544.48939457 2048.65698579 1538.45660659 2048.65279822 C1529.42513603 2048.64656367 1520.39369692 2048.65188944 1511.36222863 2048.65939564 C1495.96686497 2048.67184871 1480.57151255 2048.67480999 1465.1761446 2048.67256069 C1449.57812165 2048.6703105 1433.98010825 2048.67238443 1418.38208675 2048.67970562 C1417.39623649 2048.68016493 1416.41038623 2048.68062423 1415.39466171 2048.68109746 C1411.37930595 2048.68298077 1407.36395019 2048.68489215 1403.34859446 2048.68683984 C1361.4753136 2048.70712105 1319.60203809 2048.71325154 1277.72875287 2048.71442406 C1273.22248405 2048.71455356 1268.71621522 2048.71468943 1264.20994639 2048.71483088 C1262.53255104 2048.71488189 1262.53255104 2048.71488189 1260.82126891 2048.71493393 C1236.03275935 2048.7157511 1211.24425081 2048.72013175 1186.45574179 2048.72514256 C1176.2463354 2048.7271993 1166.03692898 2048.72917938 1155.82752258 2048.73117507 C1154.13540244 2048.73150683 1154.13540244 2048.73150683 1152.40909806 2048.7318453 C1087.76864544 2048.74449262 1023.12819348 2048.75274363 958.48773956 2048.75182819 C956.06895525 2048.75179664 953.65017094 2048.75176516 951.23138663 2048.75173378 C940.3109591 2048.75158701 929.39053157 2048.75141067 918.47010404 2048.75122601 C913.60048531 2048.75114376 908.73086658 2048.75106347 903.86124784 2048.75098338 C901.4239164 2048.75094259 898.98658496 2048.75090055 896.54925351 2048.75085726 C819.48778039 2048.74949694 742.42632565 2048.7641288 665.36485767 2048.79193783 C645.9506029 2048.79894001 626.53634812 2048.805879 607.1220932 2048.81246662 C605.92664012 2048.81287237 604.73118704 2048.81327812 603.49950812 2048.81369616 C566.64621575 2048.82612886 529.79292489 2048.83365781 492.93963051 2048.83618259 C491.78233735 2048.8362625 490.62504419 2048.8363424 489.43268154 2048.83642472 C464.02547586 2048.83813139 438.61827027 2048.83865362 413.21106454 2048.83808397 C404.11952857 2048.837891 395.02799259 2048.83778691 385.93645662 2048.83772651 C383.67475935 2048.83771068 381.41306209 2048.83769027 379.15136482 2048.83766526 C343.13552195 2048.83731283 307.11969482 2048.84869992 271.10385645 2048.86597289 C234.82114105 2048.88328539 198.53844744 2048.88764447 162.25572964 2048.87445025 C157.23707932 2048.87262577 152.21842896 2048.87093919 147.19977856 2048.86933422 C146.21602973 2048.86901405 145.23228091 2048.86869387 144.21872152 2048.86836399 C128.67040852 2048.86366628 113.12213332 2048.87235392 97.57382743 2048.88667659 C82.26814185 2048.90049361 66.96251185 2048.89992922 51.65682745 2048.88429232 C42.69538277 2048.87556071 33.73410224 2048.87759765 24.77267132 2048.89602589 C18.80414037 2048.90719112 12.83573065 2048.90357215 6.86720883 2048.88846033 C3.49459355 2048.88031934 0.12255674 2048.88022631 -3.25007721 2048.89396171 C-58.0244424 2049.10194664 -109.84277433 2032.59286426 -152.93177319 1998.38031673 C-153.9075935 1997.60945736 -154.88341381 1996.83859798 -155.88880444 1996.04437923 C-170.84457307 1983.94605223 -184.73580047 1970.0416093 -195.93177319 1954.38031673 C-196.38455639 1953.75592709 -196.83733959 1953.13153744 -197.3038435 1952.48822689 C-204.25783695 1942.8528004 -210.44209416 1932.91767921 -215.93177319 1922.38031673 C-216.53287914 1921.23514584 -216.53287914 1921.23514584 -217.14612865 1920.06684017 C-228.5098546 1898.13808827 -235.95528496 1874.73997844 -239.93177319 1850.38031673 C-240.19087665 1848.83793742 -240.19087665 1848.83793742 -240.45521454 1847.26439893 C-242.41285797 1833.93306282 -242.21160125 1820.61664054 -242.18904209 1807.16841984 C-242.19062833 1804.39313797 -242.19522495 1801.61786282 -242.19966656 1798.84258425 C-242.2077376 1792.80540012 -242.20844222 1786.76825046 -242.20425467 1780.7310629 C-242.19802016 1771.69302081 -242.20334586 1762.65501015 -242.21085209 1753.61697034 C-242.22330518 1738.21044486 -242.22626644 1722.80393062 -242.22401714 1707.39740086 C-242.22176696 1691.78809086 -242.22384087 1676.17879039 -242.23116207 1660.56948185 C-242.23162138 1659.58292116 -242.23208068 1658.59636048 -242.23255391 1657.57990402 C-242.23443722 1653.56165729 -242.2363486 1649.54341059 -242.23829629 1645.52516389 C-242.25857741 1603.62195477 -242.26470798 1561.718751 -242.26588051 1519.81553753 C-242.26601001 1515.30608357 -242.26614589 1510.79662961 -242.26628733 1506.28717566 C-242.26632134 1505.16812345 -242.26635534 1504.04907125 -242.26639038 1502.89610837 C-242.26720754 1478.0904148 -242.27158816 1453.28472225 -242.27659902 1428.47902922 C-242.27865575 1418.26265589 -242.28063582 1408.04628255 -242.28263152 1397.82990921 C-242.28296328 1396.13663778 -242.28296328 1396.13663778 -242.28330175 1394.40915885 C-242.29594901 1329.7250614 -242.30420009 1265.04096463 -242.30328465 1200.35686588 C-242.30325309 1197.93645725 -242.30322162 1195.51604862 -242.30319023 1193.09563999 C-242.30304346 1182.16786737 -242.30286712 1171.24009476 -242.30268246 1160.31232215 C-242.30260021 1155.43942254 -242.30251992 1150.56652292 -242.30243983 1145.69362331 C-242.30239904 1143.25464987 -242.302357 1140.81567643 -242.30231371 1138.37670299 C-242.30095335 1061.26071223 -242.31558607 984.14473985 -242.34339428 907.02875423 C-242.35039645 887.60023726 -242.35733542 868.17172028 -242.36392307 848.74320316 C-242.36432882 847.54687691 -242.36473457 846.35055065 -242.36515261 845.11797208 C-242.37758491 808.23899425 -242.38511418 771.36001793 -242.38763905 734.48103809 C-242.38771895 733.32297547 -242.38779885 732.16491284 -242.38788117 730.9717574 C-242.38958782 705.54793857 -242.39011008 680.12411984 -242.38954042 654.70030096 C-242.38934745 645.60288564 -242.38924336 636.50547032 -242.38918296 627.408055 C-242.38916713 625.1448905 -242.38914672 622.88172601 -242.38912171 620.61856151 C-242.38876926 584.57662812 -242.40015743 548.53471047 -242.41742934 512.49278159 C-242.43474013 476.18514702 -242.43910237 439.87753423 -242.4259067 403.56989727 C-242.42408221 398.54831897 -242.42239563 393.52674062 -242.42079067 388.50516224 C-242.4204705 387.52083555 -242.42015032 386.53650886 -242.41982045 385.5223541 C-242.4151219 369.96205774 -242.4238123 354.40179915 -242.43813305 338.84150989 C-242.45194672 323.52574302 -242.45138952 308.2100317 -242.43574877 292.89426601 C-242.42701402 283.92579401 -242.4290617 274.95748602 -242.44748234 265.98902777 C-242.45864106 260.01711654 -242.45503671 254.04532653 -242.43991678 248.07342445 C-242.43176966 244.69806831 -242.43169508 241.32329072 -242.44541816 237.94791572 C-242.65125013 183.65158924 -225.81822197 132.05861047 -191.93177319 89.38031673 C-191.16091381 88.40449642 -190.39005444 87.42867611 -189.59583569 86.42328548 C-177.49750869 71.46751685 -163.59306576 57.57628945 -147.93177319 46.38031673 C-147.30738354 45.92753353 -146.68299389 45.47475033 -146.03968334 45.00824642 C-137.01260226 38.49330256 -127.71703418 32.66004196 -117.8922224 27.42572689 C-116.61639116 26.74538948 -115.34433294 26.0579127 -114.07679272 25.36225033 C-97.83288152 16.46605223 -80.19588325 10.41150525 -62.24427319 6.00531673 C-61.3336311 5.77892513 -60.42298901 5.55253353 -59.4847517 5.31928158 C-39.75112434 0.76286593 -20.17623087 -0.0556839 0 0 Z " fill="#000000" transform="translate(241.93177318572998,-0.38031673431396484)"/>
<path d="M0 0 C1.87075195 0.31396729 1.87075195 0.31396729 3.77929688 0.63427734 C19.82335502 3.36741254 35.58285041 6.72275056 51 12 C51.9497168 12.31807617 52.89943359 12.63615234 53.87792969 12.96386719 C93.90656473 26.45191605 130.00238576 46.67740538 163 73 C164.010625 73.79792969 165.02125 74.59585938 166.0625 75.41796875 C172.44414561 80.53960195 178.47604894 86.00807147 184.46191406 91.57958984 C186.02275698 93.02101589 187.5984711 94.44425331 189.1796875 95.86328125 C194.22749546 100.40490234 199.06212794 104.96943573 203.43359375 110.18359375 C204.99941916 111.99932645 206.6490212 113.64942704 208.375 115.3125 C212.44334757 119.33594307 216.00931974 123.71388508 219.56201172 128.19384766 C220.63099035 129.53651386 221.70658963 130.87391438 222.78564453 132.20849609 C224.74290945 134.63053126 226.68511033 137.06403445 228.625 139.5 C229.26574463 140.28995361 229.90648926 141.07990723 230.56665039 141.89379883 C231.45018188 143.01371216 231.45018188 143.01371216 232.3515625 144.15625 C232.88604004 144.82462891 233.42051758 145.49300781 233.97119141 146.18164062 C234.31069824 146.78169922 234.65020508 147.38175781 235 148 C233.92200584 151.23398249 233.49231416 151.64579163 230.859375 153.53125 C230.20743164 154.0063501 229.55548828 154.4814502 228.88378906 154.97094727 C227.82756348 155.72782837 227.82756348 155.72782837 226.75 156.5 C219.2107433 162.02996573 212.01846195 167.82577782 205 174 C204.10925781 174.77859375 203.21851563 175.5571875 202.30078125 176.359375 C195.76225873 182.21699575 189.50804957 188.36585335 183.27731323 194.54745483 C181.8555947 195.95726623 180.42993212 197.36309679 179.00415039 198.76879883 C173.70025959 204.06606036 168.80526265 209.51852456 164.12768555 215.37524414 C162.11153941 217.86240273 160.0228275 220.24747759 157.875 222.62109375 C154.00744144 226.93101388 150.46209852 231.42273602 147 236.0625 C146.36481445 236.91320068 145.72962891 237.76390137 145.07519531 238.64038086 C132.94833854 255.05611253 121.84724379 272.12536327 112 290 C111.37883301 291.10891602 111.37883301 291.10891602 110.74511719 292.24023438 C91.15453162 327.32921771 77.879089 366.27499029 72 406 C71.81790985 407.17296631 71.81790985 407.17296631 71.63214111 408.36962891 C69.31384949 423.47344799 68.50764325 438.23038707 68.625 453.5 C68.62965271 454.58706238 68.63430542 455.67412476 68.63909912 456.79412842 C69.06732382 542.53475293 96.90193147 625.91834994 155 690 C155.52899902 690.58539551 156.05799805 691.17079102 156.60302734 691.77392578 C164.97318974 701.00952559 173.50662483 709.9088721 183 718 C183.93457031 718.81210938 184.86914062 719.62421875 185.83203125 720.4609375 C203.25936381 735.51868002 222.09904285 748.4482112 242 760 C242.69464355 760.40750488 243.38928711 760.81500977 244.10498047 761.23486328 C255.37626638 767.81928047 266.87039442 773.18581065 279 778 C277.96163798 781.00115337 276.91862538 784.00067328 275.875 787 C275.59140625 787.81984375 275.3078125 788.6396875 275.015625 789.484375 C274.02461152 792.32815282 273.01598086 795.1650424 272 798 C271.60151855 799.11286377 271.20303711 800.22572754 270.79248047 801.37231445 C266.10538465 814.16539769 260.73220034 826.66360743 255.375 839.1875 C254.87233612 840.36518951 254.36967224 841.54287903 253.85177612 842.7562561 C241.01421298 872.82197433 227.74128906 902.68839422 214.1875 932.4375 C213.86806427 933.13998871 213.54862854 933.84247742 213.21951294 934.56625366 C206.90207337 948.44175253 200.23545141 961.97692102 192.375 975.0625 C191.67267184 976.23809252 190.97052673 977.41379441 190.26855469 978.58959961 C180.2541103 995.33287458 170.01287417 1011.89233669 159 1028 C158.1944165 1029.18045898 158.1944165 1029.18045898 157.37255859 1030.38476562 C148.33352774 1043.58328048 138.79543138 1056.35537231 129 1069 C128.47776855 1069.67820801 127.95553711 1070.35641602 127.41748047 1071.05517578 C118.43750733 1082.71555771 108.91469836 1093.86812036 99.01953125 1104.76171875 C97.10847573 1106.87977448 95.23794417 1109.02714567 93.375 1111.1875 C90.62036766 1114.35469248 87.71508816 1117.30889385 84.71875 1120.24609375 C83.04578978 1121.95327361 81.52852674 1123.72592833 80 1125.5625 C74.75340688 1131.64996922 68.69164999 1136.9596125 62.77148438 1142.37695312 C61.27345569 1143.74945791 59.78416945 1145.13149548 58.296875 1146.515625 C51.51693782 1152.75675923 44.32309737 1158.41719706 37 1164 C36.08444336 1164.70092773 36.08444336 1164.70092773 35.15039062 1165.41601562 C26.1317751 1172.2868892 16.86603551 1178.41671496 7 1184 C6.38656738 1184.35191406 5.77313477 1184.70382812 5.14111328 1185.06640625 C-33.5920858 1207.15890181 -80.54812479 1210.46227647 -123.1875 1198.9375 C-142.24229664 1193.50389426 -160.16011745 1185.51374983 -178.05908203 1177.10791016 C-204.58776616 1164.65359035 -231.50230936 1152.23470784 -260 1145 C-261.25707764 1144.6582373 -261.25707764 1144.6582373 -262.53955078 1144.30957031 C-332.672036 1125.2779174 -397.6823708 1138.31820478 -461.59765625 1169.71875 C-488.02422475 1182.69386466 -514.89194018 1195.04298708 -543.8125 1201.3125 C-544.49183594 1201.46001709 -545.17117188 1201.60753418 -545.87109375 1201.75952148 C-558.92294888 1204.36408761 -572.07190689 1205.35542805 -585.35717773 1205.31567383 C-587.56608738 1205.31249484 -589.77367393 1205.33618711 -591.98242188 1205.36132812 C-601.97737306 1205.40526456 -611.25512778 1204.17188779 -621 1202 C-621.82314697 1201.82686279 -622.64629395 1201.65372559 -623.49438477 1201.4753418 C-639.6802742 1197.98596746 -654.42558332 1191.73489248 -669 1184 C-670.07918701 1183.43539063 -670.07918701 1183.43539063 -671.18017578 1182.859375 C-682.78247984 1176.76225879 -693.48816453 1169.8188084 -704 1162 C-704.87930176 1161.3503125 -704.87930176 1161.3503125 -705.77636719 1160.6875 C-722.93415157 1147.95592666 -738.71273721 1133.48010158 -753.7746582 1118.35571289 C-755.32584727 1116.79910611 -756.88239392 1115.24799829 -758.43945312 1113.69726562 C-763.83724462 1108.30343578 -769.05721294 1102.81776954 -774 1097 C-775.04492613 1095.80818433 -776.09178875 1094.61806358 -777.140625 1093.4296875 C-783.8562924 1085.76881258 -790.30848558 1077.96447697 -796.52832031 1069.89697266 C-798.10711388 1067.86193184 -799.70438006 1065.84237912 -801.3046875 1063.82421875 C-827.95853552 1030.10116003 -850.86657285 993.37354399 -872 956 C-872.61391602 954.92314941 -873.22783203 953.84629883 -873.86035156 952.73681641 C-900.42128502 906.05712253 -922.14545292 857.33746903 -942.00183105 807.503479 C-943.38622999 804.03130759 -944.77476086 800.56079464 -946.16351318 797.09036255 C-946.8502495 795.37408621 -947.53665713 793.65767832 -948.22271729 791.94113159 C-949.60101771 788.49281146 -950.98158159 785.04557442 -952.37304688 781.60253906 C-959.82894506 763.1364751 -965.84060763 744.30517822 -971.68261719 725.28125 C-972.79731852 721.6516176 -973.92994709 718.02791302 -975.0703125 714.40625 C-991.37146347 662.33902864 -1001.34608106 608.30931976 -1006 554 C-1006.11182617 552.71416016 -1006.22365234 551.42832031 -1006.33886719 550.10351562 C-1008.09382671 529.58654408 -1009.2099014 509.09410296 -1009.1875 488.5 C-1009.18756042 487.6305777 -1009.18762085 486.7611554 -1009.18768311 485.86538696 C-1009.1633069 460.87779415 -1008.02652502 435.81486575 -1005 411 C-1004.86335938 409.85257324 -1004.72671875 408.70514648 -1004.5859375 407.52294922 C-1002.5917707 390.91263827 -1000.28979345 374.41050743 -997 358 C-996.80792969 357.0301416 -996.61585938 356.0602832 -996.41796875 355.06103516 C-983.10739389 288.19686514 -959.69002754 223.3533498 -921.8125 166.375 C-921.39870087 165.7512851 -920.98490173 165.12757019 -920.55856323 164.48495483 C-912.08185903 151.75295059 -902.79000465 139.75449978 -893 128 C-892.21238281 127.02546875 -891.42476562 126.0509375 -890.61328125 125.046875 C-883.85568349 116.81061568 -876.44687503 109.23177351 -868.9375 101.6875 C-868.43088837 101.17571198 -867.92427673 100.66392395 -867.40231323 100.1366272 C-860.60460461 93.28423905 -853.55915709 87.0203259 -846 81 C-844.1849197 79.44049815 -842.37183674 77.87866188 -840.5625 76.3125 C-825.54165301 63.82412528 -808.98292426 53.5751405 -792 44 C-791.22398437 43.5570459 -790.44796875 43.1140918 -789.6484375 42.65771484 C-779.56517087 36.9419607 -769.1314172 32.20044325 -758.4375 27.75 C-757.27919678 27.266521 -756.12089355 26.78304199 -754.92749023 26.28491211 C-739.71852473 20.07953516 -724.20872557 15.23223258 -708.25 11.375 C-707.46460846 11.18301025 -706.67921692 10.99102051 -705.87002563 10.79321289 C-691.36649561 7.27348652 -676.91655702 4.92985032 -662.07495117 3.33789062 C-659.77711867 3.08539359 -657.48416207 2.78778658 -655.19482422 2.46728516 C-650.73617759 1.90711866 -646.32881391 1.85625613 -641.83984375 1.8671875 C-640.98145401 1.86564163 -640.12306427 1.86409576 -639.23866272 1.86250305 C-636.47155689 1.86005284 -633.704592 1.86624603 -630.9375 1.875 C-629.98883057 1.87754791 -629.04016113 1.88009583 -628.06274414 1.88272095 C-622.49161085 1.90031759 -616.92075166 1.93315492 -611.34979248 1.98040771 C-609.3453587 1.99712044 -607.34089318 2.00995066 -605.33642578 2.02197266 C-557.13707763 2.48175625 -510.32112058 16.76319564 -467 37 C-441.67824534 48.75486654 -416.65064121 59.91938876 -389 65 C-388.07388916 65.18401367 -387.14777832 65.36802734 -386.19360352 65.55761719 C-376.86513107 67.23373955 -367.62206164 67.37229496 -358.17358398 67.37060547 C-355.46598172 67.37495425 -352.76004756 67.4113267 -350.05273438 67.44921875 C-337.5993494 67.52833028 -326.09577122 65.89343994 -314 63 C-312.19849487 62.58947388 -312.19849487 62.58947388 -310.3605957 62.1706543 C-289.36073256 57.00048417 -269.11407482 48.62763942 -249.13113403 40.48880005 C-170.75726609 8.60620497 -85.31023067 -14.61021667 0 0 Z " fill="#FEFEFE" transform="translate(1390,466)"/>
<path d="M0 0 C1.13994122 47.43909223 -5.39765813 94.04494349 -21 139 C-21.30534668 139.90411621 -21.61069336 140.80823242 -21.92529297 141.73974609 C-33.6348502 176.13141418 -50.29441861 208.83360033 -72 238 C-72.4340918 238.58571777 -72.86818359 239.17143555 -73.31542969 239.77490234 C-82.22433948 251.73448032 -91.94045392 263.00046355 -102 274 C-102.98192157 275.08710345 -103.96368327 276.17435132 -104.9453125 277.26171875 C-109.71743898 282.52196345 -114.44686177 287.66041841 -119.91015625 292.21875 C-122.50681448 294.43197645 -124.95694199 296.78243775 -127.4375 299.125 C-156.70311548 326.27060148 -192.85219539 346.10066264 -230 360 C-230.9398877 360.35570068 -231.87977539 360.71140137 -232.84814453 361.07788086 C-258.07981664 370.47761363 -283.2538758 372.56919068 -310 372 C-310.34753936 349.77886773 -310.20259708 328.04562558 -307 306 C-306.85546387 304.98905273 -306.71092773 303.97810547 -306.56201172 302.93652344 C-303.25739394 280.40071362 -298.76384368 257.76751211 -292 236 C-291.69755371 235.01773438 -291.39510742 234.03546875 -291.08349609 233.0234375 C-276.74300742 186.95626537 -254.22016869 145.87996501 -222 110 C-221.4961377 109.43829102 -220.99227539 108.87658203 -220.47314453 108.29785156 C-210.570065 97.30875257 -200.33711481 86.52401006 -189 77 C-188.071875 76.19433594 -187.14375 75.38867188 -186.1875 74.55859375 C-163.71191663 55.12225019 -138.83979485 38.69418102 -111.98486328 25.94287109 C-110.6675265 25.31709562 -109.35333543 24.68465222 -108.04248047 24.04541016 C-88.39731166 14.50568137 -66.49513936 6.97001005 -45 3 C-44.26297852 2.85481934 -43.52595703 2.70963867 -42.76660156 2.56005859 C-28.50369558 -0.1960156 -14.49086024 -0.34885404 0 0 Z " fill="#FEFEFE" transform="translate(1320,112)"/>
</svg>
