<?xml version="1.0" encoding="UTF-8"?>
<svg version="1.1" xmlns="http://www.w3.org/2000/svg" width="130" height="128">
<path d="M0 0 C2.04923286 -0.0033733 4.09846376 -0.00823019 6.14768982 -0.01449585 C10.42865167 -0.02184119 14.7090896 -0.01123604 18.98999023 0.01220703 C24.45973379 0.04071119 29.92825138 0.02426511 35.39795017 -0.00565529 C39.62494544 -0.02377607 43.85165293 -0.0179486 48.07865715 -0.00501633 C50.09475795 -0.00169647 52.11088542 -0.00571904 54.12695503 -0.01741409 C56.95065047 -0.03020384 59.772396 -0.0106339 62.59594727 0.01708984 C63.82827339 0.00190811 63.82827339 0.00190811 65.085495 -0.01358032 C72.11298672 0.11337611 77.79090836 2.58961923 82.8871088 7.47794151 C88.39646695 13.48475355 89.29509241 18.80392181 89.28662109 26.73364258 C89.29333832 27.638358 89.30005554 28.54307343 89.30697632 29.47520447 C89.32594928 32.46139035 89.32988027 35.44735136 89.33203125 38.43359375 C89.33846002 40.5147867 89.34518844 42.59597874 89.35220337 44.6771698 C89.36417464 49.03911432 89.36788438 53.40097966 89.36669922 57.76293945 C89.36649612 63.34144922 89.39378947 68.91944902 89.42824364 74.49783802 C89.45052554 78.79679172 89.45453635 83.09562299 89.45347977 87.39462852 C89.45583411 89.45064742 89.46464821 91.50666977 89.4801445 93.56263161 C89.49982882 96.44421291 89.49395654 99.32469836 89.48193359 102.20629883 C89.49317261 103.04865082 89.50441162 103.89100281 89.51599121 104.75888062 C89.4441993 111.55984954 87.5370719 116.76441745 83.03125 121.90625 C82.38027344 122.44507812 81.72929688 122.98390625 81.05859375 123.5390625 C80.41019531 124.09335938 79.76179688 124.64765625 79.09375 125.21875 C73.84984714 128.83186742 69.12289908 128.97002303 62.95825195 128.98632812 C62.05674911 128.99625793 61.15524628 129.00618774 60.22642517 129.01641846 C57.2498771 129.04557891 54.27354233 129.0592528 51.296875 129.0703125 C49.22047422 129.08182388 47.14407346 129.09333924 45.06767273 129.1048584 C40.71413181 129.12585595 36.36066449 129.13755537 32.00708008 129.14453125 C26.44648334 129.15548509 20.88686995 129.2035137 15.326581 129.26047516 C11.03611982 129.29785042 6.74589239 129.30814561 2.45528221 129.311203 C0.40646182 129.31723152 -1.64235566 129.33320554 -3.69101524 129.35957336 C-24.80687086 129.6119106 -24.80687086 129.6119106 -32.00390625 122.6640625 C-38.45483913 115.02882641 -40.31217315 107.1857825 -40.27856445 97.38720703 C-40.28367538 96.60230896 -40.28878632 95.81741089 -40.29405212 95.00872803 C-40.30784622 92.43803075 -40.30699902 89.86760467 -40.3046875 87.296875 C-40.30858015 85.49380394 -40.31291598 83.69073378 -40.31767273 81.88766479 C-40.32511316 78.1169741 -40.32485959 74.34637707 -40.31958008 70.57568359 C-40.3137897 65.76540467 -40.33071663 60.95551133 -40.35392475 56.1452961 C-40.36872203 52.42359205 -40.36952564 48.70197957 -40.36641502 44.98025131 C-40.36692527 43.20779533 -40.37210673 41.43533381 -40.38222694 39.66290665 C-40.49797568 16.55718049 -40.49797568 16.55718049 -32.80638123 7.40634155 C-23.69896184 -1.39692408 -11.77756261 -0.06840002 0 0 Z M-22.00390625 18.6640625 C-24.74202346 22.21983142 -24.29250682 26.45448744 -24.27856445 30.74975586 C-24.28367538 31.56160843 -24.28878632 32.373461 -24.29405212 33.20991516 C-24.30794247 35.89132069 -24.30699181 38.57246904 -24.3046875 41.25390625 C-24.30857469 43.11951289 -24.31290941 44.98511865 -24.31767273 46.85072327 C-24.3251337 50.76045603 -24.32484451 54.67009848 -24.31958008 58.57983398 C-24.31378511 63.58801106 -24.3307177 68.59581835 -24.35392475 73.60393429 C-24.36866231 77.45669208 -24.36953377 81.30936081 -24.36641502 85.1621418 C-24.36692821 87.00850723 -24.37216542 88.85487765 -24.38222694 90.70121574 C-24.3945747 93.28404593 -24.38780988 95.8661558 -24.3762207 98.44897461 C-24.38386444 99.21017609 -24.39150818 99.97137756 -24.39938354 100.75564575 C-24.35498179 105.2366534 -23.79800054 108.11894665 -21.00390625 111.6640625 C-17.22780287 114.18146475 -14.22307412 113.95963784 -9.84814453 113.95458984 C-8.60132401 113.96466568 -8.60132401 113.96466568 -7.32931519 113.97494507 C-4.5775558 113.99396513 -1.82603981 113.99785132 0.92578125 114 C2.83765768 114.00642533 4.74953312 114.01315349 6.66140747 114.02017212 C10.67126749 114.03215504 14.6810413 114.03585192 18.69091797 114.03466797 C23.82812355 114.03446476 28.96477602 114.0617639 34.10185051 114.09621239 C38.05154965 114.11845512 42.00111515 114.12250631 45.95087051 114.12144852 C47.84469636 114.12380855 49.73852566 114.13265469 51.63228989 114.14811325 C54.28243423 114.1677195 56.93137913 114.16195654 59.58154297 114.14990234 C60.36301697 114.16114136 61.14449097 114.17238037 61.949646 114.18395996 C65.67823495 114.14088508 67.79199148 113.79529287 70.95950317 111.75869751 C74.61137318 108.00274633 74.15611585 104.60493696 74.1730957 99.62182617 C74.1796669 98.79075851 74.1862381 97.95969086 74.19300842 97.10343933 C74.21275941 94.34630244 74.22440788 91.58922006 74.234375 88.83203125 C74.23845053 87.89130579 74.24252605 86.95058033 74.24672508 85.98134804 C74.26759331 81.00246016 74.28189188 76.02359991 74.29125977 71.04467773 C74.30232701 65.89962946 74.33672838 60.75501335 74.37643147 55.61011791 C74.4025653 51.65614513 74.41094872 47.70227582 74.41454124 43.74822426 C74.41941542 41.85159702 74.43105299 39.95497465 74.44957924 38.05843163 C74.47390258 35.40343267 74.4730183 32.74955846 74.46606445 30.09448242 C74.47887451 29.31143738 74.49168457 28.52839233 74.50488281 27.72161865 C74.46924719 23.98757915 74.1301514 21.87274043 72.09172058 18.69966125 C68.35105258 15.06614263 65.00618581 15.51004101 60.0456543 15.50292969 C58.81368317 15.49548233 58.81368317 15.49548233 57.55682373 15.48788452 C54.83214488 15.47324638 52.10752426 15.4664578 49.3828125 15.4609375 C47.49192808 15.45518695 45.60104368 15.44942921 43.7101593 15.44366455 C39.74142179 15.43314955 35.77270457 15.4273103 31.80395508 15.42382812 C26.71951859 15.41834549 21.63535018 15.39432448 16.55099773 15.36585617 C12.64334838 15.34722717 8.73576352 15.34202403 4.8280735 15.34049225 C2.95378976 15.33746526 1.07950716 15.32943518 -0.79473305 15.31630707 C-3.4184567 15.29924275 -6.0415265 15.3011278 -8.6652832 15.30761719 C-9.43897751 15.2984024 -10.21267181 15.28918762 -11.0098114 15.2796936 C-15.51072205 15.31454725 -18.48700499 15.77589626 -22.00390625 18.6640625 Z " fill="#B263C7" transform="translate(41.00390625,-0.6640625)"/>
<path d="M0 0 C0.65421936 -0.00073013 1.30843872 -0.00146027 1.98248291 -0.00221252 C4.13135542 0.00125358 6.27802299 0.04006031 8.42651367 0.0793457 C9.921512 0.08867751 11.41652568 0.09579189 12.9115448 0.1007843 C16.83611671 0.11982577 20.7597554 0.16890014 24.68395996 0.2243042 C28.69241716 0.27555935 32.70102597 0.2983116 36.7097168 0.32348633 C44.56761354 0.37702359 52.42457418 0.46493432 60.28198242 0.56762695 C60.28198242 5.51762695 60.28198242 10.46762695 60.28198242 15.56762695 C41.47198242 15.56762695 22.66198242 15.56762695 3.28198242 15.56762695 C3.28198242 29.42762695 3.28198242 43.28762695 3.28198242 57.56762695 C22.09198242 57.56762695 40.90198242 57.56762695 60.28198242 57.56762695 C60.28198242 62.51762695 60.28198242 67.46762695 60.28198242 72.56762695 C51.6326475 72.68066969 42.98380458 72.77236607 34.33389759 72.82668781 C30.31720814 72.85276202 26.30105104 72.88811873 22.28466797 72.94482422 C18.40724661 72.99922404 14.53033667 73.02906387 10.6525631 73.04201317 C9.17454669 73.05123897 7.69655771 73.06925553 6.21875954 73.09627724 C4.14522868 73.13267783 2.07379989 73.13756834 0 73.13525391 C-1.17914474 73.14635696 -2.35828949 73.15746002 -3.57316589 73.16889954 C-7.75069703 72.37018621 -9.19960238 70.95323391 -11.71801758 67.56762695 C-12.35293579 64.64624023 -12.35293579 64.64624023 -12.36499023 61.38793945 C-12.38075104 60.16316895 -12.39651184 58.93839844 -12.41275024 57.67651367 C-12.40262909 56.36183105 -12.39250793 55.04714844 -12.38208008 53.69262695 C-12.38545122 52.32169159 -12.39030633 50.95075915 -12.39657593 49.57983398 C-12.40393352 46.71154221 -12.39327968 43.84403086 -12.36987305 40.97583008 C-12.34138357 37.30679202 -12.35779386 33.63958259 -12.38773537 29.97061157 C-12.40583991 27.14113693 -12.40003639 24.31209289 -12.38709641 21.48260498 C-12.38215879 19.47463793 -12.39729221 17.46665386 -12.41275024 15.45874023 C-12.39698944 14.23396973 -12.38122864 13.00919922 -12.36499023 11.74731445 C-12.36101227 10.6720752 -12.3570343 9.59683594 -12.35293579 8.48901367 C-10.87155997 1.6729048 -6.46501978 -0.06087589 0 0 Z " fill="#DC43B0" transform="translate(41.718017578125,27.432373046875)"/>
<path d="M0 0 C2.07078189 0.00933787 4.1415749 0.01644937 6.21237183 0.0214386 C11.63443065 0.04043163 17.05580839 0.08946575 22.4776001 0.1449585 C28.02143137 0.19631758 33.56537385 0.21898811 39.109375 0.24414063 C49.96644332 0.29759222 60.82300853 0.38281112 71.6796875 0.48828125 C71.6796875 1.14828125 71.6796875 1.80828125 71.6796875 2.48828125 C70.140625 4.00390625 70.140625 4.00390625 68.0546875 5.73828125 C65.4144013 7.94357777 63.54144992 9.69165046 61.5847168 12.5703125 C57.23654504 16.89088621 51.42689599 16.256198 45.69322205 16.26922607 C44.08323859 16.25403679 42.47325834 16.23850526 40.86328125 16.22265625 C39.2023031 16.22883393 37.54133348 16.23793252 35.88038635 16.24981689 C31.51733525 16.27451283 27.15505131 16.26533129 22.79199219 16.24725342 C15.80599082 16.22382009 8.82003844 16.25106637 1.83409309 16.27997589 C-0.60168378 16.28508279 -3.03704876 16.27525747 -5.47279358 16.26312256 C-6.96957405 16.26331118 -8.46635452 16.2638036 -9.96313477 16.26464844 C-11.26630142 16.25987488 -12.56946808 16.25510132 -13.91212463 16.25018311 C-17.68696849 16.33935493 -17.68696849 16.33935493 -22.3203125 18.48828125 C-25.6203125 15.18828125 -28.9203125 11.88828125 -32.3203125 8.48828125 C-31.16925627 5.03511257 -30.63678515 4.61864595 -27.59033203 2.83129883 C-19.01258109 -1.2101652 -9.25890946 -0.12296017 0 0 Z " fill="#00E9E8" transform="translate(41.3203125,-0.48828125000000006)"/>
<path d="M0 0 C0.65392731 -0.00043808 1.30785461 -0.00087616 1.9815979 -0.00132751 C4.14078743 0.00076078 6.29919826 0.02409229 8.45825195 0.04760742 C9.95611649 0.05320327 11.45398653 0.05747342 12.95185852 0.06047058 C16.89262066 0.07192037 20.83305065 0.1013884 24.77368164 0.13458252 C28.79544583 0.16528069 32.81726373 0.17897536 36.83911133 0.1940918 C44.72925464 0.22625831 52.61906433 0.27902703 60.5090332 0.34057617 C60.5090332 5.29057617 60.5090332 10.24057617 60.5090332 15.34057617 C53.15441568 15.61338394 45.80262932 15.83275995 38.44399643 15.96232224 C35.02558995 16.02455949 31.61086613 16.10869568 28.19458008 16.24584961 C3.04947822 17.23020456 3.04947822 17.23020456 -3.81268311 10.99420166 C-6.00527027 8.56941418 -7.79227769 6.13600703 -9.4909668 3.34057617 C-6.8115223 -0.28007565 -4.3191642 -0.02431049 0 0 Z " fill="#00EAE6" transform="translate(41.490966796875,27.659423828125)"/>
<path d="M0 0 C1.73417089 1.46137997 3.45911765 2.93149032 5.171875 4.41796875 C6.59806059 5.65216782 8.04513751 6.86223844 9.5 8.0625 C9.995 8.701875 10.49 9.34125 11 10 C10.68820878 11.67083067 10.34846609 13.33643147 10 15 C9.79476476 17.93080403 9.74453703 20.86384399 9.68359375 23.80078125 C9.66281265 24.63715622 9.64203156 25.47353119 9.62062073 26.33525085 C9.55548966 28.99425421 9.4964105 31.65335228 9.4375 34.3125 C9.39428008 36.12045231 9.3506647 37.92839522 9.30664062 39.73632812 C9.19984584 44.15745622 9.09847675 48.57867912 9 53 C7.783125 52.938125 6.56625 52.87625 5.3125 52.8125 C2.55728265 52.84315725 0.70223299 53.09225102 -1.97167969 53.9206543 C-4.73973662 56.75834579 -4.55779062 58.72658921 -4.54083252 62.58955383 C-4.51188904 63.47394638 -4.48294556 64.35833893 -4.453125 65.26953125 C-4.44367859 66.18329025 -4.43423218 67.09704926 -4.42449951 68.03849792 C-4.38987133 70.96406431 -4.32113354 73.88761366 -4.25 76.8125 C-4.19993042 79.72640535 -4.15690046 82.6402876 -4.11834717 85.55436707 C-4.09209074 87.36758434 -4.05798197 89.18070976 -4.01495361 90.99360657 C-3.92762802 95.4677956 -4.07122298 99.59280033 -5 104 C-5.33 104 -5.66 104 -6 104 C-6.92310858 99.29544676 -7.15381083 94.72828324 -7.16113281 89.95019531 C-7.16609772 89.16558929 -7.17106262 88.38098328 -7.17617798 87.57260132 C-7.19071641 84.9911001 -7.19758788 82.40966034 -7.203125 79.828125 C-7.20595238 78.94143883 -7.20877975 78.05475266 -7.21169281 77.1411972 C-7.22665235 72.44829513 -7.23590205 67.75542354 -7.24023438 63.0625 C-7.24571225 58.23649542 -7.26973513 53.41077392 -7.29820633 48.58485794 C-7.31691168 44.85458585 -7.32204251 41.12438087 -7.32357025 37.39406586 C-7.32657981 35.61601973 -7.33455039 33.83797431 -7.34775543 32.05997467 C-7.42908357 20.26732556 -7.45463727 9.76814539 0 0 Z " fill="#FEAC20" transform="translate(8,7)"/>
<path d="M0 0 C14.52 0 29.04 0 44 0 C44 5.28 44 10.56 44 16 C29.48 16 14.96 16 0 16 C0 10.72 0 5.44 0 0 Z " fill="#8777FE" transform="translate(58,56)"/>
<path d="M0 0 C5.70012374 2.61033704 11.30058061 6.13832148 14 12 C15.25795919 19.23797932 14.62109286 26.71696954 14 34 C12.35 33.34 10.7 32.68 9 32 C9 31.34 9 30.68 9 30 C3.6913151 30.58174845 3.6913151 30.58174845 -1 33 C-1.02469081 28.6217488 -1.04285557 24.24353433 -1.05493164 19.86523438 C-1.05996514 18.37531834 -1.06679242 16.88540726 -1.07543945 15.39550781 C-1.08754805 13.25584696 -1.09323807 11.11625132 -1.09765625 8.9765625 C-1.10289307 7.68830566 -1.10812988 6.40004883 -1.11352539 5.07275391 C-1 2 -1 2 0 0 Z " fill="#FCAA01" transform="translate(31,31)"/>
<path d="M0 0 C6.27 0 12.54 0 19 0 C19 4.95 19 9.9 19 15 C8.44 15 -2.12 15 -13 15 C-11.35 13.35 -9.7 11.7 -8 10 C-6.7348922 8.61784482 -5.48327787 7.22312978 -4.25 5.8125 C-3.65703125 5.13832031 -3.0640625 4.46414062 -2.453125 3.76953125 C-0.93415284 2.05331968 -0.93415284 2.05331968 0 0 Z " fill="#45AFFE" transform="translate(83,28)"/>
<path d="M0 0 C2.64 0 5.28 0 8 0 C6.59684164 1.64272199 5.19052393 3.28283676 3.76953125 4.91015625 C2.5766286 6.31899271 1.42812948 7.76649312 0.32421875 9.24609375 C-3.95337622 14.76271622 -3.95337622 14.76271622 -7.22265625 15.50390625 C-9.4375 15.5 -9.4375 15.5 -13 15 C-12.319375 14.34 -11.63875 13.68 -10.9375 13 C-4.76039257 7.02832835 -4.76039257 7.02832835 0 0 Z " fill="#21BEFE" transform="translate(83,28)"/>
<path d="M0 0 C0 2.97 0 5.94 0 9 C-2.475 8.01 -2.475 8.01 -5 7 C-5 6.34 -5 5.68 -5 5 C-10.3086849 5.58174845 -10.3086849 5.58174845 -15 8 C-15 5.69 -15 3.38 -15 1 C-9.92928099 0.28832014 -5.11791642 -0.10662326 0 0 Z " fill="#FE7D1C" transform="translate(45,56)"/>
<path d="M0 0 C0.99 0.99 1.98 1.98 3 3 C4.3303125 3.5878125 4.3303125 3.5878125 5.6875 4.1875 C8 6 8 6 8.3203125 7.96875 C8.31322364 9.98198743 8.16446891 11.99347934 8 14 C5.36 14 2.72 14 0 14 C0 9.38 0 4.76 0 0 Z " fill="#D043D4" transform="translate(58,58)"/>
<path d="M0 0 C4.95 0 9.9 0 15 0 C14.67 0.66 14.34 1.32 14 2 C12.948125 1.938125 11.89625 1.87625 10.8125 1.8125 C6.78774291 2.01043887 4.97276147 2.29748957 2 5 C1.58253392 8.12635209 1.58253392 8.12635209 2 11 C1.34 11 0.68 11 0 11 C0 7.37 0 3.74 0 0 Z " fill="#FE831C" transform="translate(2,58)"/>
<path d="M0 0 C4.875 1.875 4.875 1.875 6 3 C6.14115161 5.67058851 6.04247107 8.32432238 6 11 C5.01 10.67 4.02 10.34 3 10 C2.05078125 7.71484375 2.05078125 7.71484375 1.3125 4.9375 C1.06113281 4.01839844 0.80976562 3.09929687 0.55078125 2.15234375 C0.36902344 1.44207031 0.18726563 0.73179688 0 0 Z " fill="#B54CF4" transform="translate(60,61)"/>
<path d="M0 0 C1.64846769 0.44876616 3.29373455 0.90930488 4.9375 1.375 C5.85402344 1.63023438 6.77054687 1.88546875 7.71484375 2.1484375 C10 3 10 3 11 5 C5.62694301 5.44041451 5.62694301 5.44041451 3 5 C1 2.5 1 2.5 0 0 Z " fill="#9962FE" transform="translate(58,57)"/>
<path d="M0 0 C0 1.65 0 3.3 0 5 C-2.475 4.01 -2.475 4.01 -5 3 C-5 2.34 -5 1.68 -5 1 C-3 0 -3 0 0 0 Z " fill="#FF6740" transform="translate(45,60)"/>
<path d="M0 0 C0.33 0 0.66 0 1 0 C1.33 2.31 1.66 4.62 2 7 C0.68 7 -0.64 7 -2 7 C-1.34 4.69 -0.68 2.38 0 0 Z " fill="#00FAEA" transform="translate(54,36)"/>
</svg>
