<?xml version="1.0" encoding="UTF-8"?>
<svg version="1.1" xmlns="http://www.w3.org/2000/svg" width="498" height="373">
<path d="M0 0 C164.34 0 328.68 0 498 0 C498 123.09 498 246.18 498 373 C333.66 373 169.32 373 0 373 C0 249.91 0 126.82 0 0 Z " fill="#181818" transform="translate(0,0)"/>
<path d="M0 0 C1.875 1.1875 1.875 1.1875 2.875 3.1875 C2.97357496 4.70027861 3.01003814 6.2173144 3.01544189 7.73329163 C3.02115204 8.69066223 3.02686218 9.64803284 3.03274536 10.63441467 C3.03442215 12.21542213 3.03442215 12.21542213 3.03613281 13.82836914 C3.04109772 14.93586517 3.04606262 16.04336121 3.05117798 17.18441772 C3.06583214 20.86383681 3.07260847 24.54321272 3.078125 28.22265625 C3.08387557 30.77656557 3.08963332 33.33047487 3.09539795 35.88438416 C3.10457244 40.56238035 3.11086774 45.24036357 3.1138947 49.91836649 C3.11836546 56.78941489 3.13586423 63.66026337 3.1648953 70.53125101 C3.18919613 76.49101691 3.19684307 82.45073356 3.19857025 88.41055107 C3.20159273 90.94022138 3.20960755 93.46989094 3.22275543 95.99952888 C3.23987003 99.54679456 3.23792167 103.09357857 3.23144531 106.64086914 C3.2406601 107.6807045 3.24987488 108.72053986 3.2593689 109.79188538 C3.21503574 117.57014947 2.50339775 124.88247176 -3.1875 130.625 C-8.61887378 134.92688376 -14.81739913 138.04834504 -20.89453125 141.328125 C-26.61013443 144.42330365 -32.20982612 147.70598607 -37.8125 151 C-45.71167185 155.63273381 -53.64220735 160.20039082 -61.625 164.6875 C-69.50139914 169.11582705 -77.32913372 173.61890049 -85.125 178.1875 C-93.84945557 183.30027927 -102.62337183 188.314611 -111.4387207 193.26879883 C-119.81569948 197.98721611 -128.12110359 202.82431812 -136.41015625 207.6953125 C-137.83714844 208.53255859 -137.83714844 208.53255859 -139.29296875 209.38671875 C-140.13110107 209.88002686 -140.9692334 210.37333496 -141.83276367 210.8815918 C-147.71852523 214.23476451 -147.71852523 214.23476451 -150.8125 213.875 C-153.125 213.1875 -153.125 213.1875 -154.125 212.1875 C-154.22729436 210.67259896 -154.26019106 209.1529548 -154.26544189 207.63461304 C-154.27115204 206.65048431 -154.27686218 205.66635559 -154.28274536 204.65240479 C-154.28386322 203.56361023 -154.28498108 202.47481567 -154.28613281 201.35302734 C-154.29109772 200.21320404 -154.29606262 199.07338074 -154.30117798 197.89901733 C-154.31584874 194.10715136 -154.32261093 190.31532726 -154.328125 186.5234375 C-154.33387387 183.89604694 -154.33963163 181.26865639 -154.34539795 178.64126587 C-154.35497893 173.82794623 -154.36086927 169.01463566 -154.3638947 164.20130765 C-154.36836808 157.12307997 -154.38587752 150.04504611 -154.4148953 142.96687734 C-154.43915984 136.83463322 -154.44684129 130.70246876 -154.44857025 124.57017899 C-154.45159768 121.96349663 -154.45962919 119.3568151 -154.47275543 116.75016403 C-154.4898219 113.09940728 -154.48793346 109.44912038 -154.48144531 105.79833984 C-154.4906601 104.72169067 -154.49987488 103.6450415 -154.5093689 102.5357666 C-154.46318669 94.23457739 -152.99393735 88.41343194 -147.125 82.1875 C-144.69677734 80.48095703 -144.69677734 80.48095703 -141.9609375 78.9453125 C-140.93484375 78.36201172 -139.90875 77.77871094 -138.8515625 77.17773438 C-137.19253906 76.25444336 -137.19253906 76.25444336 -135.5 75.3125 C-134.33271729 74.65278152 -133.16606118 73.99195328 -132 73.33007812 C-129.5788987 71.95695685 -127.15518097 70.5886325 -124.72949219 69.22363281 C-119.16908459 66.08940882 -113.64931771 62.88474731 -108.125 59.6875 C-105.95590814 58.4358877 -103.78663675 57.18458647 -101.6171875 55.93359375 C-97.30898349 53.44819098 -93.00177211 50.96108023 -88.6953125 48.47265625 C-78.06986159 42.33477823 -67.43422959 36.21584562 -56.77484131 30.137146 C-45.33319053 23.61226911 -33.93018986 17.02413452 -22.5625 10.37109375 C-21.68464844 9.85788574 -20.80679688 9.34467773 -19.90234375 8.81591797 C-17.89188932 7.63714414 -15.8844559 6.45321284 -13.87890625 5.26611328 C-12.80511719 4.63302246 -11.73132813 3.99993164 -10.625 3.34765625 C-9.6453125 2.76765869 -8.665625 2.18766113 -7.65625 1.59008789 C-2.83226476 -1.08292476 -2.83226476 -1.08292476 0 0 Z " fill="#171717" transform="translate(259.125,28.8125)"/>
<path d="M0 0 C0.08097324 2.27024968 0.13917704 4.54132075 0.1875 6.8125 C0.23970703 8.70935547 0.23970703 8.70935547 0.29296875 10.64453125 C0 14 0 14 -1.51171875 15.94921875 C-2.00285156 16.29597656 -2.49398437 16.64273438 -3 17 C-2.0925 17.165 -1.185 17.33 -0.25 17.5 C3.69695614 19.32167207 4.50957297 20.70680897 6.22265625 24.56640625 C7.05606235 27.17551179 7.37853105 29.59281036 7.6875 32.3125 C8.54539937 38.35643972 10.69355089 43.44817604 13.25 48.9375 C13.62084717 49.75452393 13.99169434 50.57154785 14.3737793 51.41333008 C16.86438564 56.56974258 19.33517709 59.66316858 24 63 C23.67 63.99 23.34 64.98 23 66 C16.12138728 64.82080925 16.12138728 64.82080925 13 63 C12.6451046 61.00371336 12.31421071 59.00309329 12 57 C9.56272118 54.14445983 9.56272118 54.14445983 7 52 C6.95875 53.0725 6.9175 54.145 6.875 55.25 C6 59 6 59 3.25 61.375 C0.37728496 62.81135752 -1.83448947 63.627587 -5 64 C-5 64.66 -5 65.32 -5 66 C-2.36 66 0.28 66 3 66 C3 66.66 3 67.32 3 68 C3.99 68.33 4.98 68.66 6 69 C5.505 70.485 5.505 70.485 5 72 C-1.16682778 72.42529847 -3.98772343 71.96319543 -9 68 C-12.00440021 65.99706653 -13.70993945 65.50728374 -17.1875 64.875 C-18.08855469 64.70742187 -18.98960937 64.53984375 -19.91796875 64.3671875 C-20.94857422 64.18542969 -20.94857422 64.18542969 -22 64 C-22.495 61.525 -22.495 61.525 -23 59 C-23.8971875 58.814375 -23.8971875 58.814375 -24.8125 58.625 C-27 58 -27 58 -30 56 C-30.40843923 53.28796348 -30.13336867 50.7562858 -30 48 C-30.86625 48.515625 -31.7325 49.03125 -32.625 49.5625 C-36.42663365 51.18171433 -38.09096868 51.15494107 -42 50 C-42.66 49.34 -43.32 48.68 -44 48 C-43.94921875 46.03125 -43.94921875 46.03125 -43 44 C-40.70703125 42.71875 -40.70703125 42.71875 -37.8125 41.5 C-31.69783423 38.41512358 -30.14695542 34.99021099 -27.5390625 28.859375 C-25.14053607 24.40322944 -21.54199789 22.07115104 -17 20 C-16.34 20 -15.68 20 -15 20 C-15.02320313 19.28714844 -15.04640625 18.57429688 -15.0703125 17.83984375 C-15.17815674 12.11639606 -14.92057311 7.40161186 -13 2 C-11.20873548 1.66451233 -9.41697413 1.33167645 -7.625 1 C-6.62726563 0.814375 -5.62953125 0.62875 -4.6015625 0.4375 C-2 0 -2 0 0 0 Z " fill="#FC6369" transform="translate(337,164)"/>
<path d="M0 0 C4.9484482 1.76232461 9.38172807 4.36023474 13.9375 6.9375 C16.26033729 8.24659698 18.58401532 9.55230429 20.92089844 10.83618164 C22.70967669 11.83748577 24.45906768 12.90857694 26.19921875 13.9921875 C29.02614792 15.33838445 29.02614792 15.33838445 31.9921875 13.98046875 C32.94351563 13.38878906 33.89484375 12.79710937 34.875 12.1875 C35.84179688 11.60355469 36.80859375 11.01960937 37.8046875 10.41796875 C38.52914062 9.95003906 39.25359375 9.48210937 40 9 C41 12 41 12 40.22265625 13.82421875 C39.1484375 15.54947917 38.07421875 17.27473958 37 19 C36.505 18.01 36.505 18.01 36 17 C36.33 16.34 36.66 15.68 37 15 C35.3603125 16.0209375 35.3603125 16.0209375 33.6875 17.0625 C31.82421875 18.22265625 31.82421875 18.22265625 30 19 C29.01 18.67 28.02 18.34 27 18 C25.4978906 19.18251166 23.99708797 20.3733768 22.59765625 21.67578125 C21 23 21 23 18.99609375 23.97265625 C12.86957959 27.12583281 9.73105049 34.012697 7 40 C8.98 39.505 8.98 39.505 11 39 C13 42 13 42 12.86328125 44.375 C12.68152344 45.24125 12.49976563 46.1075 12.3125 47 C12.14363281 47.86625 11.97476562 48.7325 11.80078125 49.625 C10.92566031 52.22048063 10.14462753 53.33021701 8 55 C6.515 55.495 6.515 55.495 5 56 C3.26043342 54.26043342 3.62809614 51.8063378 3.4375 49.4375 C3.35371094 48.42558594 3.26992188 47.41367188 3.18359375 46.37109375 C3.12300781 45.58863281 3.06242187 44.80617187 3 44 C2.24460937 43.70867187 1.48921875 43.41734375 0.7109375 43.1171875 C-2.05524348 41.97723395 -4.58624518 40.58826429 -7.1640625 39.07421875 C-8.39911527 38.35158149 -9.64430733 37.64602869 -10.8984375 36.95703125 C-13.97919271 35.26066604 -16.70528782 33.69966139 -19 31 C-18.67 30.34 -18.34 29.68 -18 29 C-17.34 29 -16.68 29 -16 29 C-15.67 28.34 -15.34 27.68 -15 27 C-14.34 27.33 -13.68 27.66 -13 28 C-11.62657169 28.0689472 -10.24997898 28.08467708 -8.875 28.0625 C-7.59625 28.041875 -6.3175 28.02125 -5 28 C-5 27.34 -5 26.68 -5 26 C-5.66 25.67 -6.32 25.34 -7 25 C-7 24.34 -7 23.68 -7 23 C-9.64 23 -12.28 23 -15 23 C-15 22.34 -15 21.68 -15 21 C-13.730447 20.35165346 -12.45930294 19.70642185 -11.1875 19.0625 C-10.47980469 18.70285156 -9.77210938 18.34320313 -9.04296875 17.97265625 C-7 17 -7 17 -4 16 C-4 13.36 -4 10.72 -4 8 C2.81048198 13.01450632 2.81048198 13.01450632 3.625 17.25 C3.74875 18.1575 3.8725 19.065 4 20 C7.25802063 21.93720146 9.15044673 22 13 22 C12.27326171 18.85592734 12.27326171 18.85592734 9.67578125 17.296875 C6.24719322 14.35379505 4.93923255 11.34124291 3.1875 7.25 C2.87619141 6.55261719 2.56488281 5.85523438 2.24414062 5.13671875 C1.48418123 3.42973303 0.74041861 1.71555204 0 0 Z " fill="#1E1D1D" transform="translate(347,207)"/>
<path d="M0 0 C1.875 1.3125 1.875 1.3125 3 3 C3 3.99 3 4.98 3 6 C2.42894531 6.32049316 1.85789062 6.64098633 1.26953125 6.97119141 C-9.91083395 13.25237035 -21.0562664 19.58635405 -32.125 26.0625 C-33.60383667 26.92427856 -33.60383667 26.92427856 -35.11254883 27.8034668 C-40.09167155 30.70601567 -45.05707069 33.62866924 -50.00390625 36.5859375 C-51.8982523 37.703439 -53.79277584 38.8206397 -55.6875 39.9375 C-56.55455566 40.4641626 -57.42161133 40.9908252 -58.31494141 41.53344727 C-59.12237793 42.00580811 -59.92981445 42.47816895 -60.76171875 42.96484375 C-61.46256592 43.3837085 -62.16341309 43.80257324 -62.88549805 44.23413086 C-65.65165878 45.23602974 -67.21669075 44.86419186 -70 44 C-70.99 43.34 -71.98 42.68 -73 42 C-72.76782227 40.17138672 -72.76782227 40.17138672 -72 38 C-70.15600586 36.57470703 -70.15600586 36.57470703 -67.71484375 35.2578125 C-66.80379883 34.75620605 -65.89275391 34.25459961 -64.95410156 33.73779297 C-63.95862305 33.20557129 -62.96314453 32.67334961 -61.9375 32.125 C-59.82589078 30.96523721 -57.71524318 29.80372219 -55.60546875 28.640625 C-54.51282715 28.04185547 -53.42018555 27.44308594 -52.29443359 26.82617188 C-47.0635406 23.92658097 -41.90768899 20.90229374 -36.75 17.875 C-35.75814697 17.29685547 -34.76629395 16.71871094 -33.74438477 16.12304688 C-28.96844018 13.33809308 -24.20906965 10.53007142 -19.4765625 7.671875 C-18.61321289 7.15641113 -17.74986328 6.64094727 -16.86035156 6.10986328 C-15.25423456 5.15029514 -13.65412054 4.18057431 -12.06152344 3.19873047 C-7.90403241 0.72957496 -4.99024411 -0.71396565 0 0 Z " fill="#6F6F6F" transform="translate(291,229)"/>
<path d="M0 0 C1.30063968 0.54142908 2.5903409 1.10917482 3.875 1.6875 C4.59429687 2.00074219 5.31359375 2.31398437 6.0546875 2.63671875 C8 4 8 4 8.8125 6.16015625 C10.6383926 10.52668231 13.82647833 13.41939154 17.125 16.75 C17.764375 17.43449219 18.40375 18.11898437 19.0625 18.82421875 C23.60897171 23.43459669 26.49380852 24.91305757 33 25 C33 25.66 33 26.32 33 27 C33.99 27.33 34.98 27.66 36 28 C35.505 29.485 35.505 29.485 35 31 C28.83317222 31.42529847 26.01227657 30.96319543 21 27 C17.99559979 24.99706653 16.29006055 24.50728374 12.8125 23.875 C11.91144531 23.70742187 11.01039063 23.53984375 10.08203125 23.3671875 C9.39496094 23.24601562 8.70789063 23.12484375 8 23 C7.67 21.35 7.34 19.7 7 18 C6.401875 17.87625 5.80375 17.7525 5.1875 17.625 C3 17 3 17 0 15 C-0.22137393 12.37302936 -0.28162025 9.99106036 -0.1875 7.375 C-0.17396484 6.66859375 -0.16042969 5.9621875 -0.14648438 5.234375 C-0.1111104 3.48925872 -0.05730221 1.74453392 0 0 Z " fill="#F4F0EF" transform="translate(307,205)"/>
<path d="M0 0 C1.64689635 0.97737769 3.29248854 1.9569532 4.9375 2.9375 C5.85402344 3.48277344 6.77054687 4.02804688 7.71484375 4.58984375 C10 6 10 6 11 7 C11.375 9.8125 11.375 9.8125 11 13 C7.34579641 16.40646098 3.13793777 18.80931411 -1.1875 21.25 C-1.81591797 21.61351562 -2.44433594 21.97703125 -3.09179688 22.3515625 C-7.74647556 25 -7.74647556 25 -10 25 C-9.89300781 24.39671875 -9.78601563 23.7934375 -9.67578125 23.171875 C-8.79093221 18.1191966 -8.79093221 18.1191966 -10.4375 13.4375 C-10.953125 12.963125 -11.46875 12.48875 -12 12 C-11.46890625 11.72027344 -10.9378125 11.44054687 -10.390625 11.15234375 C-5.0589253 8.12650688 -2.6102597 5.54680186 0 0 Z " fill="#272727" transform="translate(382,226)"/>
<path d="M0 0 C4.9484482 1.76232461 9.38172807 4.36023474 13.9375 6.9375 C16.26033729 8.24659698 18.58401532 9.55230429 20.92089844 10.83618164 C22.70967669 11.83748577 24.45906768 12.90857694 26.19921875 13.9921875 C29.02614792 15.33838445 29.02614792 15.33838445 31.9921875 13.98046875 C32.94351563 13.38878906 33.89484375 12.79710937 34.875 12.1875 C35.84179688 11.60355469 36.80859375 11.01960937 37.8046875 10.41796875 C38.52914062 9.95003906 39.25359375 9.48210937 40 9 C41 12 41 12 40.22265625 13.82421875 C39.1484375 15.54947917 38.07421875 17.27473958 37 19 C36.505 18.01 36.505 18.01 36 17 C36.33 16.34 36.66 15.68 37 15 C35.3603125 16.0209375 35.3603125 16.0209375 33.6875 17.0625 C31.82421875 18.22265625 31.82421875 18.22265625 30 19 C29.01 18.67 28.02 18.34 27 18 C26.236875 18.515625 25.47375 19.03125 24.6875 19.5625 C22 21 22 21 19 20.375 C16.18762068 19.08599281 13.64284411 17.59961617 11 16 C10.3306543 15.8750415 9.66130859 15.75008301 8.97167969 15.62133789 C7 15 7 15 5.078125 11.62109375 C4.4538839 10.23315343 3.84501762 8.83821744 3.25 7.4375 C2.93417969 6.72658203 2.61835938 6.01566406 2.29296875 5.28320312 C1.51545957 3.52791726 0.75598145 1.76466457 0 0 Z " fill="#2B2B2B" transform="translate(347,207)"/>
<path d="M0 0 C2 1 2 1 3.125 3.125 C5.17327731 9.85505401 3.62265622 14.77119147 1 21 C-0.98 20.01 -2.96 19.02 -5 18 C-5.04125 18.928125 -5.0825 19.85625 -5.125 20.8125 C-6 24 -6 24 -8.6875 25.9375 C-12.36894455 27.1183407 -14.31955961 27.08740284 -18 26 C-18.66 25.34 -19.32 24.68 -20 24 C-19.94921875 22.03125 -19.94921875 22.03125 -19 20 C-16.70703125 18.71875 -16.70703125 18.71875 -13.8125 17.5 C-7.70617998 14.42304913 -5.71284329 10.79265877 -3.12109375 4.609375 C-2 2 -2 2 0 0 Z " fill="#FB676F" transform="translate(313,188)"/>
<path d="M0 0 C0.08097324 2.27024968 0.13917704 4.54132075 0.1875 6.8125 C0.22230469 8.07707031 0.25710938 9.34164062 0.29296875 10.64453125 C0 14 0 14 -1.26171875 15.94921875 C-3 17 -3 17 -7 17 C-6.67 18.65 -6.34 20.3 -6 22 C-12.15234375 22.09765625 -12.15234375 22.09765625 -14 22 C-15.76519212 20.23480788 -15.1726736 17.7650157 -15.1875 15.375 C-15.15840378 10.49847296 -14.66088454 6.5674325 -13 2 C-11.20873548 1.66451233 -9.41697413 1.33167645 -7.625 1 C-6.62726563 0.814375 -5.62953125 0.62875 -4.6015625 0.4375 C-2 0 -2 0 0 0 Z " fill="#F1EEEE" transform="translate(337,164)"/>
<path d="M0 0 C0.99 0.66 1.98 1.32 3 2 C2.62486691 4.40739514 2.38139992 5.66756654 0.51293945 7.29614258 C-1.5451189 8.48611874 -3.60441041 9.66670847 -5.6875 10.8125 C-6.75000977 11.44188477 -6.75000977 11.44188477 -7.83398438 12.08398438 C-11.33727649 14.04751006 -13.30563379 15.03595682 -17.39453125 14.82421875 C-20 14 -20 14 -22 13 C-21.984375 10.8046875 -21.984375 10.8046875 -21 8 C-18.62901388 5.99129069 -15.98194643 4.58716851 -13.25 3.125 C-12.17492187 2.50238281 -12.17492187 2.50238281 -11.078125 1.8671875 C-4.42830309 -1.7999937 -4.42830309 -1.7999937 0 0 Z " fill="#7B7B7B" transform="translate(291,186)"/>
<path d="M0 0 C2.91018755 1.45509377 3.09160952 3.37090737 4.25 6.375 C8.95370564 18.79200351 8.95370564 18.79200351 18 28 C17.67 28.99 17.34 29.98 17 31 C10.12138728 29.82080925 10.12138728 29.82080925 7 28 C6.6451046 26.00371336 6.31421071 24.00309329 6 22 C3.66666667 19.33333333 3.66666667 19.33333333 1 17 C-2.16146765 13.161075 -3.13437762 10.27205546 -3.0625 5.3125 C-3.05347656 4.50425781 -3.04445313 3.69601563 -3.03515625 2.86328125 C-3.02355469 2.24839844 -3.01195312 1.63351563 -3 1 C-2.01 0.67 -1.02 0.34 0 0 Z " fill="#EEEBEA" transform="translate(343,199)"/>
<path d="M0 0 C2 1 2 1 3 3 C2.2575 3.66 1.515 4.32 0.75 5 C-2.46180754 8.17520574 -4.18475721 11.91316847 -6 16 C-4.68 15.67 -3.36 15.34 -2 15 C0 18 0 18 -0.13671875 20.375 C-0.31847656 21.24125 -0.50023437 22.1075 -0.6875 23 C-0.85636719 23.86625 -1.02523438 24.7325 -1.19921875 25.625 C-2.07433969 28.22048063 -2.85537247 29.33021701 -5 31 C-5.99 31.33 -6.98 31.66 -8 32 C-9.73956658 30.26043342 -9.37190386 27.8063378 -9.5625 25.4375 C-9.64628906 24.42558594 -9.73007812 23.41367188 -9.81640625 22.37109375 C-9.87699219 21.58863281 -9.93757813 20.80617187 -10 20 C-11.1446875 19.566875 -11.1446875 19.566875 -12.3125 19.125 C-15 18 -15 18 -18 16 C-18 15.34 -18 14.68 -18 14 C-16.8553125 14.495 -16.8553125 14.495 -15.6875 15 C-13.00930865 16.17436686 -13.00930865 16.17436686 -10 16 C-9.44570313 15.01257813 -8.89140625 14.02515625 -8.3203125 13.0078125 C-7.58871328 11.71344465 -6.85693301 10.41917913 -6.125 9.125 C-5.76019531 8.47402344 -5.39539063 7.82304687 -5.01953125 7.15234375 C-3.51339464 4.49606646 -2.16980999 2.16980999 0 0 Z " fill="#242424" transform="translate(360,231)"/>
<path d="M0 0 C0.99 0.66 1.98 1.32 3 2 C2.921875 4.2265625 2.921875 4.2265625 2 7 C-0.2669326 8.72690415 -2.27448814 10.03702092 -4.75 11.375 C-5.37132812 11.74238281 -5.99265625 12.10976563 -6.6328125 12.48828125 C-9.47029395 14.07463691 -11.48501498 15.02764044 -14.765625 14.8515625 C-17 14 -17 14 -20 12 C-19.921875 10.265625 -19.921875 10.265625 -19 8 C-16.755656 6.39018258 -14.65522023 5.06459406 -12.25 3.75 C-11.31800781 3.20472656 -11.31800781 3.20472656 -10.3671875 2.6484375 C-6.80895506 0.65162351 -4.09405779 -0.65848482 0 0 Z " fill="#626262" transform="translate(174,266)"/>
<path d="M0 0 C0.66 0.66 1.32 1.32 2 2 C6.14509433 2.28602162 6.14509433 2.28602162 10 1 C11.29315061 1.95632999 12.58446853 2.91513851 13.875 3.875 C14.59429687 4.40867187 15.31359375 4.94234375 16.0546875 5.4921875 C18 7 18 7 20 9 C19.625 11.125 19.625 11.125 19 13 C12.0554929 12.66397546 5.6015261 11.40119908 0 7 C-0.9612423 4.09847232 -1.38235615 2.7647123 0 0 Z " fill="#EE5C6E" transform="translate(345,287)"/>
<path d="M0 0 C3.39192363 0.59283621 5.2107757 1.76743189 7.75 4.0625 C8.67039062 4.88427734 8.67039062 4.88427734 9.609375 5.72265625 C10.06828125 6.14417969 10.5271875 6.56570313 11 7 C10.67 8.32 10.34 9.64 10 11 C3.86520723 10.58817363 -1.46124108 9.76937946 -7 7 C-8 4.3125 -8 4.3125 -8 2 C-5.69 2 -3.38 2 -1 2 C-0.67 1.34 -0.34 0.68 0 0 Z " fill="#EA5970" transform="translate(361,275)"/>
<path d="M0 0 C2.4294516 3.6441774 2.16179575 5.71241272 2 10 C-1.33793869 11.98686827 -3.32045959 13.03920425 -7.25 12.8125 C-10 12 -10 12 -12 10 C-11.97265625 8.078125 -11.97265625 8.078125 -11 6 C-8.49609375 4.296875 -8.49609375 4.296875 -5.4375 2.75 C-4.42558594 2.22921875 -3.41367187 1.7084375 -2.37109375 1.171875 C-1.58863281 0.78515625 -0.80617188 0.3984375 0 0 Z " fill="#7B7A7B" transform="translate(305,202)"/>
<path d="M0 0 C1.1810666 0.87676118 2.34449718 1.77731227 3.5 2.6875 C4.1496875 3.18636719 4.799375 3.68523437 5.46875 4.19921875 C7 6 7 6 7.21875 8.70703125 C7.1465625 9.46371094 7.074375 10.22039062 7 11 C0.54521713 14.82260707 -3.57544389 16.78739314 -11 15 C-11 14.34 -11 13.68 -11 13 C-9.730447 12.35165346 -8.45930294 11.70642185 -7.1875 11.0625 C-6.47980469 10.70285156 -5.77210938 10.34320313 -5.04296875 9.97265625 C-3 9 -3 9 0 8 C0 5.36 0 2.72 0 0 Z " fill="#1E1E1E" transform="translate(343,215)"/>
<path d="M0 0 C2.9375 0.75 2.9375 0.75 4.9375 2.75 C4.9375 6.75 4.9375 6.75 3.25 8.5625 C0.9375 9.75 0.9375 9.75 -1.625 9.5625 C-4.0625 8.75 -4.0625 8.75 -7.0625 6.75 C-6.75 4.375 -6.75 4.375 -6.0625 1.75 C-3.0625 -0.25 -3.0625 -0.25 0 0 Z " fill="#E55273" transform="translate(275.0625,220.25)"/>
<path d="M0 0 C2.375 0.875 2.375 0.875 5.375 2.875 C5.375 4.195 5.375 5.515 5.375 6.875 C3.25 8.75 3.25 8.75 0.375 9.875 C-2.8125 9.3125 -2.8125 9.3125 -5.625 7.875 C-7 5.75 -7 5.75 -7.625 3.875 C-3.34615385 -0.15934066 -3.34615385 -0.15934066 0 0 Z " fill="#59E79A" transform="translate(250.625,192.125)"/>
<path d="M0 0 C2 2 2 2 2 5 C-0.65655406 7.12524325 -2.19019033 8.03856237 -5.625 7.875 C-8.12543087 6.95378863 -9.31864104 6.03532927 -11 4 C-10.03493328 1.58733319 -9.27646516 0.20973219 -7.1875 -1.375 C-4.16607092 -2.23826545 -2.73107644 -1.43740865 0 0 Z " fill="#4EF0E2" transform="translate(228,237)"/>
<path d="M0 0 C2 1 2 1 3 3 C2.2575 3.66 1.515 4.32 0.75 5 C-2.46180754 8.17520574 -4.18475721 11.91316847 -6 16 C-5.34 16.33 -4.68 16.66 -4 17 C-8.25114155 20.03652968 -8.25114155 20.03652968 -11.5625 19.875 C-14.1891787 18.9320897 -15.95411692 17.89433619 -18 16 C-18 15.34 -18 14.68 -18 14 C-16.8553125 14.495 -16.8553125 14.495 -15.6875 15 C-13.00930865 16.17436686 -13.00930865 16.17436686 -10 16 C-9.44570313 15.01257813 -8.89140625 14.02515625 -8.3203125 13.0078125 C-7.58871328 11.71344465 -6.85693301 10.41917913 -6.125 9.125 C-5.76019531 8.47402344 -5.39539063 7.82304687 -5.01953125 7.15234375 C-3.51339464 4.49606646 -2.16980999 2.16980999 0 0 Z " fill="#404040" transform="translate(360,231)"/>
<path d="M0 0 C2.3125 1.3125 2.3125 1.3125 4.3125 3.3125 C4.3125 4.3025 4.3125 5.2925 4.3125 6.3125 C2.1875 8.125 2.1875 8.125 -0.6875 9.3125 C-4 8.5 -4 8.5 -6.6875 7.3125 C-7.0175 5.6625 -7.3475 4.0125 -7.6875 2.3125 C-3.40273619 -0.8704674 -3.40273619 -0.8704674 0 0 Z " fill="#6D6D6D" transform="translate(237.6875,242.6875)"/>
<path d="M0 0 C2.37071524 0.93391812 4.10040534 2.20077939 6.0625 3.8125 C5.5 5.75 5.5 5.75 4.0625 7.8125 C0.6875 8.75 0.6875 8.75 -2.9375 8.8125 C-5.375 7.375 -5.375 7.375 -6.9375 5.8125 C-5.50695588 2.51124435 -4.12319984 -0.39901934 0 0 Z " fill="#707070" transform="translate(248.9375,235.1875)"/>
<path d="M0 0 C2.5 0.75 2.5 0.75 5.5 2.75 C5.1875 4.625 5.1875 4.625 4.5 6.75 C1.5 8.75 1.5 8.75 -1.5625 8.4375 C-4.5 7.75 -4.5 7.75 -6.5 6.75 C-6.1875 4.375 -6.1875 4.375 -5.5 1.75 C-2.5 -0.25 -2.5 -0.25 0 0 Z " fill="#F25075" transform="translate(199.5,236.25)"/>
<path d="M0 0 C2.5 0.75 2.5 0.75 5.5 2.75 C5.1875 4.625 5.1875 4.625 4.5 6.75 C1.5 8.75 1.5 8.75 -1.5 8.5 C-4.5 7.75 -4.5 7.75 -7.5 5.75 C-5.89439884 2.04476656 -4.46545201 -0.4465452 0 0 Z " fill="#6F6F6F" transform="translate(187.5,229.25)"/>
<path d="M0 0 C0.99 0.66 1.98 1.32 3 2 C2.75 3.875 2.75 3.875 2 6 C-0.38101556 7.78576167 -1.59030372 8.03997037 -4.5625 7.75 C-7 7 -7 7 -10 5 C-9.75 3.125 -9.75 3.125 -9 1 C-5.85061974 -1.3620352 -3.66876342 -1.12885028 0 0 Z " fill="#767676" transform="translate(253,208)"/>
<path d="M0 0 C0.78375 0.4125 1.5675 0.825 2.375 1.25 C3.035 1.58 3.695 1.91 4.375 2.25 C4.0625 4.625 4.0625 4.625 3.375 7.25 C0.375 9.25 0.375 9.25 -2.125 9 C-4.625 8.25 -4.625 8.25 -7.625 6.25 C-7.25471996 3.56546973 -6.74840935 2.3822243 -4.875 0.375 C-2.625 -0.75 -2.625 -0.75 0 0 Z " fill="#606060" transform="translate(186.625,271.75)"/>
<path d="M0 0 C2.3125 1.5 2.3125 1.5 4 3 C2.63016497 6.16115776 2.0109362 6.9927092 -1 9 C-3.96836854 8.6169847 -6.37888816 7.40416706 -9 6 C-8.6875 4.125 -8.6875 4.125 -8 2 C-4.74236778 -0.17175481 -3.77560787 -0.46043998 0 0 Z " fill="#F0CF08" transform="translate(176,251)"/>
<path d="M0 0 C2.9375 0.75 2.9375 0.75 4.9375 2.75 C4.75 4.75 4.75 4.75 3.9375 6.75 C0.9375 8.75 0.9375 8.75 -1.5625 8.5 C-4.0625 7.75 -4.0625 7.75 -7.0625 5.75 C-6.75 3.875 -6.75 3.875 -6.0625 1.75 C-3.0625 -0.25 -3.0625 -0.25 0 0 Z " fill="#737373" transform="translate(262.0625,228.25)"/>
<path d="M0 0 C2.37071524 0.93391812 4.10040534 2.20077939 6.0625 3.8125 C5.5 5.75 5.5 5.75 4.0625 7.8125 C0.6875 8.75 0.6875 8.75 -2.9375 8.8125 C-5.375 7.375 -5.375 7.375 -6.9375 5.8125 C-5.50695588 2.51124435 -4.12319984 -0.39901934 0 0 Z " fill="#757575" transform="translate(300.9375,221.1875)"/>
<path d="M0 0 C2.3125 1.5 2.3125 1.5 4 3 C3.75 4.875 3.75 4.875 3 7 C0.59284731 8.80536451 -0.61772974 9.03640669 -3.625 8.75 C-6 8 -6 8 -8 6 C-8 4.68 -8 3.36 -8 2 C-4.74236778 -0.17175481 -3.77560787 -0.46043998 0 0 Z " fill="#767676" transform="translate(264,214)"/>
<path d="M0 0 C2.37071524 0.93391812 4.10040534 2.20077939 6.0625 3.8125 C5.5 5.75 5.5 5.75 4.0625 7.8125 C0.6875 8.75 0.6875 8.75 -2.9375 8.8125 C-5.375 7.375 -5.375 7.375 -6.9375 5.8125 C-5.50695588 2.51124435 -4.12319984 -0.39901934 0 0 Z " fill="#767676" transform="translate(224.9375,207.1875)"/>
<path d="M0 0 C0.33 1.65 0.66 3.3 1 5 C-0.6875 6.5625 -0.6875 6.5625 -3 8 C-6.50610679 7.7434556 -8.0278901 6.9814066 -11 5 C-10.6875 3.125 -10.6875 3.125 -10 1 C-6.1496895 -1.56687367 -4.41430237 -0.83288724 0 0 Z " fill="#777777" transform="translate(279,208)"/>
<path d="M0 0 C2.9375 0.75 2.9375 0.75 4.9375 2.75 C4.9375 4.07 4.9375 5.39 4.9375 6.75 C2.50394121 8.28224072 1.28028436 8.78344238 -1.625 8.5 C-4.0625 7.75 -4.0625 7.75 -7.0625 5.75 C-6.75 3.875 -6.75 3.875 -6.0625 1.75 C-3.0625 -0.25 -3.0625 -0.25 0 0 Z " fill="#787878" transform="translate(238.0625,200.25)"/>
<path d="M0 0 C2.9375 0.6875 2.9375 0.6875 4.9375 1.6875 C4.625 4.0625 4.625 4.0625 3.9375 6.6875 C0.9375 8.6875 0.9375 8.6875 -1.5625 8.4375 C-4.0625 7.6875 -4.0625 7.6875 -7.0625 5.6875 C-6.75 3.8125 -6.75 3.8125 -6.0625 1.6875 C-3.0625 -0.3125 -3.0625 -0.3125 0 0 Z " fill="#5A5A5A" transform="translate(187.0625,287.3125)"/>
<path d="M0 0 C-0.37028004 2.68453027 -0.87659065 3.8677757 -2.75 5.875 C-5 7 -5 7 -7.625 6.25 C-8.40875 5.8375 -9.1925 5.425 -10 5 C-10.66 4.67 -11.32 4.34 -12 4 C-11.51851852 -0.57407407 -11.51851852 -0.57407407 -9.25 -2.4375 C-5.61018741 -3.34745315 -3.21183412 -1.60591706 0 0 Z " fill="#646464" transform="translate(204,267)"/>
<path d="M0 0 C2.5 0.75 2.5 0.75 5.5 2.75 C5.1875 4.625 5.1875 4.625 4.5 6.75 C1.5 8.75 1.5 8.75 -1.5625 8.5 C-4.5 7.75 -4.5 7.75 -6.5 5.75 C-6.3125 3.75 -6.3125 3.75 -5.5 1.75 C-2.5 -0.25 -2.5 -0.25 0 0 Z " fill="#646464" transform="translate(136.5,258.25)"/>
<path d="M0 0 C0.99 0.66 1.98 1.32 3 2 C2.6875 4.375 2.6875 4.375 2 7 C-1 9 -1 9 -2.9375 8.75 C-5.05674028 7.97936717 -7.01322958 7.0643413 -9 6 C-8.6875 4.125 -8.6875 4.125 -8 2 C-4.75366476 -0.1642235 -3.75698557 -0.37569856 0 0 Z " fill="#717171" transform="translate(214,229)"/>
<path d="M0 0 C0.78375 0.4125 1.5675 0.825 2.375 1.25 C3.035 1.58 3.695 1.91 4.375 2.25 C4.375 3.57 4.375 4.89 4.375 6.25 C2.1875 8.125 2.1875 8.125 -0.625 9.25 C-3.3125 8.5 -3.3125 8.5 -5.625 7.25 C-6.285 6.92 -6.945 6.59 -7.625 6.25 C-7.25471996 3.56546973 -6.74840935 2.3822243 -4.875 0.375 C-2.625 -0.75 -2.625 -0.75 0 0 Z " fill="#747474" transform="translate(225.625,221.75)"/>
<path d="M0 0 C2.9375 0.6875 2.9375 0.6875 4.9375 1.6875 C4.625 4.0625 4.625 4.0625 3.9375 6.6875 C0.9375 8.6875 0.9375 8.6875 -1.5625 8.4375 C-4.0625 7.6875 -4.0625 7.6875 -7.0625 5.6875 C-6.75 3.8125 -6.75 3.8125 -6.0625 1.6875 C-3.0625 -0.3125 -3.0625 -0.3125 0 0 Z " fill="#747474" transform="translate(200.0625,222.3125)"/>
<path d="M0 0 C3.4375 0.75 3.4375 0.75 5.4375 2.75 C5.4375 4.75 5.4375 4.75 4.4375 6.75 C1.6875 8.1875 1.6875 8.1875 -1.5625 8.75 C-4.4375 7.625 -4.4375 7.625 -6.5625 5.75 C-6.5625 4.43 -6.5625 3.11 -6.5625 1.75 C-3.5625 -0.25 -3.5625 -0.25 0 0 Z " fill="#757575" transform="translate(212.5625,215.25)"/>
<path d="M0 0 C2.5 0.75 2.5 0.75 5.5 2.75 C5.1875 4.625 5.1875 4.625 4.5 6.75 C1.5 8.75 1.5 8.75 -1.5625 8.5 C-4.5 7.75 -4.5 7.75 -6.5 5.75 C-6.3125 3.75 -6.3125 3.75 -5.5 1.75 C-2.5 -0.25 -2.5 -0.25 0 0 Z " fill="#7A7A7A" transform="translate(287.5,199.25)"/>
<path d="M0 0 C2.9375 0.6875 2.9375 0.6875 4.9375 1.6875 C4.625 4.0625 4.625 4.0625 3.9375 6.6875 C0.9375 8.6875 0.9375 8.6875 -1.5625 8.4375 C-4.0625 7.6875 -4.0625 7.6875 -7.0625 5.6875 C-6.75 3.8125 -6.75 3.8125 -6.0625 1.6875 C-3.0625 -0.3125 -3.0625 -0.3125 0 0 Z " fill="#797979" transform="translate(263.0625,200.3125)"/>
<path d="M0 0 C2.3125 1.3125 2.3125 1.3125 4.3125 3.3125 C4.3125 4.3025 4.3125 5.2925 4.3125 6.3125 C2.125 8.125 2.125 8.125 -0.6875 9.3125 C-3.375 8.5625 -3.375 8.5625 -5.6875 7.3125 C-6.3475 6.9825 -7.0075 6.6525 -7.6875 6.3125 C-7.6875 4.9925 -7.6875 3.6725 -7.6875 2.3125 C-4.88246241 -0.09181794 -3.64894371 -0.93345072 0 0 Z " fill="#5E5E5E" transform="translate(200.6875,279.6875)"/>
<path d="M0 0 C-0.3125 2.375 -0.3125 2.375 -1 5 C-4 7 -4 7 -6.5 6.75 C-9 6 -9 6 -12 4 C-11.75 2.125 -11.75 2.125 -11 0 C-7.27066494 -2.79700129 -3.97753548 -1.98876774 0 0 Z " fill="#5D5D5D" transform="translate(178,281)"/>
<path d="M0 0 C0.99 0.66 1.98 1.32 3 2 C2.6875 3.875 2.6875 3.875 2 6 C-1 8 -1 8 -4.0625 7.75 C-7 7 -7 7 -9 5 C-8.875 3 -8.875 3 -8 1 C-5.09376041 -1.10451832 -3.3163854 -1.28376209 0 0 Z " fill="#626262" transform="translate(151,266)"/>
<path d="M0 0 C2.9375 0.75 2.9375 0.75 4.9375 2.75 C4.75 4.75 4.75 4.75 3.9375 6.75 C0.9375 8.75 0.9375 8.75 -1.5625 8.5 C-4.0625 7.75 -4.0625 7.75 -7.0625 5.75 C-6.75 3.875 -6.75 3.875 -6.0625 1.75 C-3.0625 -0.25 -3.0625 -0.25 0 0 Z " fill="#6C6C6C" transform="translate(224.0625,250.25)"/>
<path d="M0 0 C1.875 0.8125 1.875 0.8125 4.875 2.8125 C4.875 4.1325 4.875 5.4525 4.875 6.8125 C2.21771875 8.54995313 0.97899645 8.82081972 -2.25 8.5625 C-5.125 7.8125 -5.125 7.8125 -7.125 5.8125 C-7.125 4.8225 -7.125 3.8325 -7.125 2.8125 C-4.68520426 0.91488109 -3.14876716 -0.2778324 0 0 Z " fill="#6C6C6C" transform="translate(187.125,243.1875)"/>
<path d="M0 0 C2.9375 0.6875 2.9375 0.6875 4.9375 1.6875 C4.625 4.0625 4.625 4.0625 3.9375 6.6875 C0.9375 8.6875 0.9375 8.6875 -1.5625 8.4375 C-4.0625 7.6875 -4.0625 7.6875 -7.0625 5.6875 C-6.75 3.8125 -6.75 3.8125 -6.0625 1.6875 C-3.0625 -0.3125 -3.0625 -0.3125 0 0 Z " fill="#6A6A6A" transform="translate(162.0625,244.3125)"/>
<path d="M0 0 C2.5 0.75 2.5 0.75 5.5 2.75 C5.1875 4.625 5.1875 4.625 4.5 6.75 C1.5 8.75 1.5 8.75 -1 8.5 C-3.5 7.75 -3.5 7.75 -6.5 5.75 C-6.1875 3.875 -6.1875 3.875 -5.5 1.75 C-2.5 -0.25 -2.5 -0.25 0 0 Z " fill="#6E6E6E" transform="translate(211.5,243.25)"/>
<path d="M0 0 C2.3125 1.3125 2.3125 1.3125 4.3125 3.3125 C4.3125 4.3025 4.3125 5.2925 4.3125 6.3125 C2.125 8.125 2.125 8.125 -0.6875 9.3125 C-3.375 8.5625 -3.375 8.5625 -5.6875 7.3125 C-6.3475 6.9825 -7.0075 6.6525 -7.6875 6.3125 C-7.6875 4.9925 -7.6875 3.6725 -7.6875 2.3125 C-4.88246241 -0.09181794 -3.64894371 -0.93345072 0 0 Z " fill="#6E6E6E" transform="translate(175.6875,236.6875)"/>
<path d="M0 0 C2.96985717 1.58392382 3.769266 2.37029801 4.8125 5.5 C3.25 7.0625 3.25 7.0625 0.8125 8.5 C-2.8125 8.4375 -2.8125 8.4375 -6.1875 7.5 C-7.625 5.4375 -7.625 5.4375 -8.1875 3.5 C-4.05190678 -0.63559322 -4.05190678 -0.63559322 0 0 Z " fill="#737373" transform="translate(238.1875,228.5)"/>
<path d="M0 0 C2.5 0.75 2.5 0.75 5.5 2.75 C5.1875 4.625 5.1875 4.625 4.5 6.75 C1.5 8.75 1.5 8.75 -1.5625 8.4375 C-4.5 7.75 -4.5 7.75 -6.5 6.75 C-6.1875 4.375 -6.1875 4.375 -5.5 1.75 C-2.5 -0.25 -2.5 -0.25 0 0 Z " fill="#767676" transform="translate(237.5,214.25)"/>
<path d="M0 0 C2.5 0.75 2.5 0.75 5.5 2.75 C5.1875 4.625 5.1875 4.625 4.5 6.75 C1.5 8.75 1.5 8.75 -1.5625 8.5 C-4.5 7.75 -4.5 7.75 -6.5 5.75 C-6.3125 3.75 -6.3125 3.75 -5.5 1.75 C-2.5 -0.25 -2.5 -0.25 0 0 Z " fill="#7A7A7A" transform="translate(300.5,192.25)"/>
<path d="M0 0 C1.875 0.8125 1.875 0.8125 4.875 2.8125 C4.875 4.1325 4.875 5.4525 4.875 6.8125 C1.61736778 8.98425481 0.65060787 9.27293998 -3.125 8.8125 C-5.4375 7.5 -5.4375 7.5 -7.125 5.8125 C-7.125 4.8225 -7.125 3.8325 -7.125 2.8125 C-4.68520426 0.91488109 -3.14876716 -0.2778324 0 0 Z " fill="#7A7A7A" transform="translate(276.125,178.1875)"/>
<path d="M0 0 C2.63662075 0.85690174 3.75689748 1.70242853 5.5 3.8125 C4.875 5.75 4.875 5.75 3.5 7.8125 C0.2291021 8.80799067 -1.66733041 9.14118536 -4.875 7.875 C-5.41125 7.524375 -5.9475 7.17375 -6.5 6.8125 C-6.1875 4.4375 -6.1875 4.4375 -5.5 1.8125 C-2.5 -0.1875 -2.5 -0.1875 0 0 Z " fill="#626262" transform="translate(212.5,272.1875)"/>
<path d="M0 0 C1.875 0.8125 1.875 0.8125 4.875 2.8125 C4.875 4.1325 4.875 5.4525 4.875 6.8125 C2.44144121 8.34474072 1.21778436 8.84594238 -1.6875 8.5625 C-4.125 7.8125 -4.125 7.8125 -7.125 5.8125 C-7.125 4.8225 -7.125 3.8325 -7.125 2.8125 C-4.68520426 0.91488109 -3.14876716 -0.2778324 0 0 Z " fill="#676767" transform="translate(211.125,257.1875)"/>
<path d="M0 0 C2 0.75 2 0.75 5 2.75 C5 4.07 5 5.39 5 6.75 C1.74236778 8.92175481 0.77560787 9.21043998 -3 8.75 C-5.3125 7.25 -5.3125 7.25 -7 5.75 C-5.55606412 2.41784028 -4.16205205 -0.52025651 0 0 Z " fill="#6A6A6A" transform="translate(199,250.25)"/>
<path d="M0 0 C2.5 0.75 2.5 0.75 5.5 2.75 C5.25 4.625 5.25 4.625 4.5 6.75 C2.09284731 8.55536451 0.88227026 8.78640669 -2.125 8.5 C-4.5 7.75 -4.5 7.75 -6.5 5.75 C-6.3125 3.75 -6.3125 3.75 -5.5 1.75 C-2.5 -0.25 -2.5 -0.25 0 0 Z " fill="#676767" transform="translate(149.5,251.25)"/>
<path d="M0 0 C0.875 2.125 0.875 2.125 1 4 C-0.625 5.5625 -0.625 5.5625 -3 7 C-6.67293796 6.77962372 -8.36966546 6.63033454 -11 4 C-10.875 2 -10.875 2 -10 0 C-6.50332977 -2.84913871 -3.84493896 -1.87974794 0 0 Z " fill="#777777" transform="translate(254,223)"/>
<path d="M0 0 C3.375 0.9375 3.375 0.9375 4.8125 3 C5.0909375 3.9590625 5.0909375 3.9590625 5.375 4.9375 C3.8125 6.5 3.8125 6.5 1.375 7.9375 C-2.25 7.875 -2.25 7.875 -5.625 6.9375 C-7.0625 4.875 -7.0625 4.875 -7.625 2.9375 C-4.95306414 0.26556414 -3.86874355 -0.06670248 0 0 Z " fill="#777777" transform="translate(287.625,214.0625)"/>
<path d="M0 0 C3.375 0.9375 3.375 0.9375 4.8125 3 C5.0909375 3.9590625 5.0909375 3.9590625 5.375 4.9375 C3.8125 6.5 3.8125 6.5 1.375 7.9375 C-2.25 7.875 -2.25 7.875 -5.625 6.9375 C-7.0625 4.875 -7.0625 4.875 -7.625 2.9375 C-4.95306414 0.26556414 -3.86874355 -0.06670248 0 0 Z " fill="#7A7A7A" transform="translate(263.625,186.0625)"/>
<path d="M0 0 C1.4375 2.0625 1.4375 2.0625 2 4 C-0.19192582 5.94837851 -1.56793713 6.93519057 -4.5 7.375 C-7.43206287 6.93519057 -8.80807418 5.94837851 -11 4 C-8.43012555 -1.69043627 -5.96601872 -1.38496863 0 0 Z " fill="#676767" transform="translate(190,259)"/>
<path d="M0 0 C2.5 0.75 2.5 0.75 5.5 2.75 C5.25 4.625 5.25 4.625 4.5 6.75 C2.30665194 8.33828653 1.13985607 8.82755831 -1.5625 8.5 C-3.5 7.75 -3.5 7.75 -6.5 5.75 C-6.1875 3.875 -6.1875 3.875 -5.5 1.75 C-2.5 -0.25 -2.5 -0.25 0 0 Z " fill="#676767" transform="translate(161.5,258.25)"/>
<path d="M0 0 C6.86214442 5.0940919 6.86214442 5.0940919 7.4375 8.875 C7.293125 9.57625 7.14875 10.2775 7 11 C5.1875 11.625 5.1875 11.625 3 12 C0 10 0 10 -2 8 C-1.34 8 -0.68 8 0 8 C0 5.36 0 2.72 0 0 Z " fill="#2D2C2C" transform="translate(343,215)"/>
<path d="M0 0 C0.556875 0.37511719 1.11375 0.75023437 1.6875 1.13671875 C6.25646168 4.2007015 10.85370246 7.18088511 15.56640625 10.01953125 C16.03949219 10.34308594 16.51257813 10.66664063 17 11 C17 11.33 17 11.66 17 12 C10.375 12.25 10.375 12.25 7 10 C7 8.68 7 7.36 7 6 C6.401875 5.87625 5.80375 5.7525 5.1875 5.625 C3 5 3 5 0 3 C0 2.01 0 1.02 0 0 Z " fill="#CB6B87" transform="translate(307,217)"/>
<path d="M0 0 C0.99 0.33 1.98 0.66 3 1 C2.67 3.31 2.34 5.62 2 8 C0.35 8.33 -1.3 8.66 -3 9 C-2.25 2.25 -2.25 2.25 0 0 Z " fill="#303030" transform="translate(152,132)"/>
<path d="M0 0 C0.99 0.33 1.98 0.66 3 1 C3.3125 3.8125 3.3125 3.8125 3 7 C0.5 8.875 0.5 8.875 -2 10 C-2.97687451 6.96083486 -3.105817 5.01586454 -2 2 C-1.34 1.34 -0.68 0.68 0 0 Z " fill="#353535" transform="translate(173,120)"/>
<path d="M0 0 C1.0326802 2.78823655 1.04509293 3.8677274 0.0625 6.75 C-0.288125 7.4925 -0.63875 8.235 -1 9 C-1.66 8.67 -2.32 8.34 -3 8 C-3.66 9.32 -4.32 10.64 -5 12 C-5.66 12 -6.32 12 -7 12 C-7.33 9.69 -7.66 7.38 -8 5 C-7.01 5.495 -7.01 5.495 -6 6 C-5.01 5.01 -4.02 4.02 -3 3 C-2.67 3.33 -2.34 3.66 -2 4 C-1.34 2.68 -0.68 1.36 0 0 Z " fill="#3D3D3D" transform="translate(168,123)"/>
<path d="M0 0 C0.66 0.99 1.32 1.98 2 3 C0.68 5.31 -0.64 7.62 -2 10 C-2.33 9.34 -2.66 8.68 -3 8 C-2.67 7.34 -2.34 6.68 -2 6 C-3.32 6.33 -4.64 6.66 -6 7 C-6.33 6.01 -6.66 5.02 -7 4 C-4.69 2.68 -2.38 1.36 0 0 Z " fill="#3A3B3A" transform="translate(386,216)"/>
<path d="M0 0 C0.99 0 1.98 0 3 0 C3.36923077 5.53846154 3.36923077 5.53846154 1.5 7.875 C0.7575 8.431875 0.7575 8.431875 0 9 C-0.99 8.67 -1.98 8.34 -3 8 C-3 6.35 -3 4.7 -3 3 C-1.33333333 3 0.33333333 3 2 3 C2 2.34 2 1.68 2 1 C1.34 0.67 0.68 0.34 0 0 Z " fill="#3E3E3E" transform="translate(186,113)"/>
<path d="M0 0 C0.99 0.33 1.98 0.66 3 1 C3 1.99 3 2.98 3 4 C1 5.6875 1 5.6875 -1 7 C0.32 6.34 1.64 5.68 3 5 C2.34 6.32 1.68 7.64 1 9 C-0.32 8.67 -1.64 8.34 -3 8 C-3.36923077 3.44615385 -3.36923077 3.44615385 -1.5 1.1875 C-1.005 0.795625 -0.51 0.40375 0 0 Z " fill="#393939" transform="translate(208,100)"/>
<path d="M0 0 C1.15006091 3.37299744 0.85199953 5.34853215 -0.3125 8.6875 C-0.57675781 9.47511719 -0.84101563 10.26273438 -1.11328125 11.07421875 C-2 13 -2 13 -4 14 C-3.979375 12.9275 -3.95875 11.855 -3.9375 10.75 C-3.9857984 7.85209576 -4.13155885 5.71387859 -5 3 C-4.34 3 -3.68 3 -3 3 C-3 3.66 -3 4.32 -3 5 C-2.34 5 -1.68 5 -1 5 C-0.67 3.35 -0.34 1.7 0 0 Z " fill="#3A3A3A" transform="translate(203,103)"/>
<path d="M0 0 C0.33 0 0.66 0 1 0 C1.12117188 0.66386719 1.24234375 1.32773438 1.3671875 2.01171875 C2.22547708 6.53424459 3.03971311 10.79938524 5 15 C3.68 15 2.36 15 1 15 C-0.44207941 12.11584117 -0.09394887 9.58278472 -0.0625 6.375 C-0.05347656 5.18648437 -0.04445313 3.99796875 -0.03515625 2.7734375 C-0.02355469 1.85820312 -0.01195312 0.94296875 0 0 Z " fill="#FB6981" transform="translate(338,185)"/>
<path d="M0 0 C0.99 0 1.98 0 3 0 C3.125 2.875 3.125 2.875 3 6 C2.34 6.66 1.68 7.32 1 8 C0.01 7.34 -0.98 6.68 -2 6 C-1.01 5.34 -0.02 4.68 1 4 C1.33 3.01 1.66 2.02 2 1 C1.34 0.67 0.68 0.34 0 0 Z " fill="#313131" transform="translate(186,113)"/>
</svg>
